<svg width="76" height="75" viewBox="0 0 76 75" fill="none" xmlns="http://www.w3.org/2000/svg">
<g clip-path="url(#clip0_530_17396)">
<path d="M37.7522 74.9999C58.4629 74.9999 75.2522 58.2106 75.2522 37.4999C75.2522 16.7893 58.4629 -6.10352e-05 37.7522 -6.10352e-05C17.0415 -6.10352e-05 0.252197 16.7893 0.252197 37.4999C0.252197 58.2106 17.0415 74.9999 37.7522 74.9999Z" fill="url(#paint0_linear_530_17396)"/>
<path d="M37.7522 66.599C53.8232 66.599 66.8513 53.5709 66.8513 37.4999C66.8513 21.429 53.8232 8.40085 37.7522 8.40085C21.6812 8.40085 8.65311 21.429 8.65311 37.4999C8.65311 53.5709 21.6812 66.599 37.7522 66.599Z" fill="url(#paint1_linear_530_17396)"/>
<path d="M14.7975 62.275C14.8985 62.1719 14.9415 62.0537 14.9264 61.9226C14.9114 61.7915 14.834 61.6066 14.6943 61.3638C14.5525 61.1231 14.4686 60.9275 14.4429 60.7771C14.4042 60.5643 14.4558 60.3838 14.5976 60.2355C14.7351 60.0915 14.9071 60.0335 15.1112 60.0571C15.3154 60.0808 15.5088 60.1818 15.6915 60.3601C15.8161 60.4805 15.9043 60.6116 15.9558 60.7534C16.0074 60.8953 16.0182 61.0371 15.9902 61.1747C15.9623 61.3122 15.8957 61.4347 15.7947 61.54L15.6356 61.3853C15.7603 61.2563 15.814 61.1123 15.8033 60.9511C15.7904 60.79 15.7108 60.6374 15.5647 60.4934C15.4207 60.3558 15.2767 60.2763 15.1306 60.2591C14.9844 60.2419 14.8619 60.2828 14.7609 60.3859C14.6685 60.4805 14.632 60.5965 14.6492 60.7298C14.6664 60.863 14.7373 61.035 14.8619 61.2434C14.9844 61.4519 15.0661 61.6217 15.1048 61.7549C15.1435 61.8882 15.1521 62.0085 15.1284 62.1203C15.1048 62.232 15.0489 62.333 14.9586 62.4254C14.8168 62.5737 14.6427 62.6339 14.4386 62.6081C14.2344 62.5823 14.0367 62.477 13.8433 62.2922C13.7122 62.1654 13.6133 62.0236 13.5488 61.871C13.4844 61.7184 13.465 61.5701 13.4887 61.4304C13.5144 61.2907 13.5789 61.1661 13.6842 61.0565L13.8433 61.209C13.7165 61.3401 13.6649 61.4927 13.6885 61.6647C13.7143 61.8366 13.8067 61.9999 13.9701 62.159C14.1162 62.2987 14.2645 62.3803 14.4128 62.4018C14.5632 62.4233 14.69 62.3803 14.7932 62.275H14.7975Z" fill="white"/>
<path d="M17.1701 63.6311C17.0153 63.8138 16.8498 63.9492 16.6693 64.0351C16.4888 64.1211 16.3104 64.1512 16.1299 64.1275C15.9494 64.1039 15.7817 64.0265 15.627 63.8976C15.3949 63.702 15.2767 63.4613 15.2724 63.1755C15.2681 62.8896 15.3863 62.6038 15.6227 62.3223L15.7946 62.116C15.9472 61.9354 16.1148 61.8 16.2954 61.7141C16.4759 61.6281 16.6586 61.5959 16.8391 61.6195C17.0196 61.6432 17.1873 61.7184 17.3398 61.8473C17.4924 61.9763 17.5977 62.1267 17.6536 62.2986C17.7095 62.4706 17.7116 62.6511 17.6622 62.8402C17.6128 63.0293 17.5139 63.2142 17.3678 63.3925L17.1679 63.6311H17.1701ZM17.183 63.2743C17.385 63.0336 17.4881 62.8015 17.4924 62.5737C17.4989 62.3459 17.4065 62.1547 17.2173 61.9956C17.0325 61.8409 16.8284 61.785 16.6027 61.828C16.3792 61.8731 16.1643 62.0171 15.958 62.26L15.7839 62.4684C15.5862 62.7048 15.483 62.9369 15.4766 63.1669C15.4701 63.3968 15.5604 63.5903 15.7495 63.7493C15.9408 63.9083 16.1471 63.9664 16.3663 63.9191C16.5877 63.8718 16.8004 63.7278 17.0046 63.4828L17.1808 63.2722L17.183 63.2743Z" fill="white"/>
<path d="M18.928 65.3482C18.7432 65.5524 18.5412 65.6663 18.322 65.6856C18.1028 65.7071 17.8793 65.6362 17.6558 65.475C17.4989 65.3633 17.3893 65.2236 17.3248 65.0581C17.2603 64.8926 17.2474 64.7142 17.2861 64.5251C17.3248 64.336 17.4086 64.1469 17.5418 63.962L17.7396 63.6891C17.875 63.5021 18.0275 63.3581 18.1973 63.2614C18.3671 63.1647 18.5433 63.1196 18.7217 63.1303C18.9022 63.1411 19.072 63.2034 19.2332 63.3195C19.4589 63.4828 19.5943 63.6719 19.6372 63.889C19.6802 64.106 19.6351 64.3274 19.5018 64.5595L19.3213 64.4306C19.5362 64.0394 19.4696 63.7213 19.1257 63.472C18.9345 63.3345 18.7303 63.2958 18.5133 63.3581C18.2962 63.4205 18.0963 63.5752 17.9158 63.8288L17.7288 64.0867C17.5526 64.3295 17.4688 64.5638 17.4752 64.7895C17.4817 65.0151 17.5784 65.1935 17.7675 65.331C17.9545 65.4664 18.1264 65.5223 18.2854 65.5008C18.4445 65.4793 18.5992 65.3869 18.7497 65.2257L18.9302 65.3547L18.928 65.3482Z" fill="white"/>
<path d="M19.8564 66.8935L20.7634 65.3891L20.4904 65.2236L20.5807 65.0731L20.8536 65.2386L20.974 65.0388C21.0771 64.869 21.1975 64.7658 21.3393 64.7271C21.4812 64.6885 21.6273 64.7164 21.7821 64.8088C21.8508 64.8496 21.911 64.8991 21.9604 64.9528L21.8551 65.0968C21.8121 65.0538 21.7606 65.0151 21.7004 64.9786C21.5994 64.9184 21.5027 64.9012 21.4081 64.9313C21.3135 64.9614 21.2319 65.0323 21.1631 65.1484L21.0385 65.3547L21.4339 65.5932L21.3436 65.7437L20.9482 65.5051L20.0413 67.0095L19.8586 66.8977L19.8564 66.8935Z" fill="white"/>
<path d="M21.204 66.5453C21.2921 66.382 21.4017 66.2509 21.5371 66.1542C21.6703 66.0575 21.8165 66.0037 21.9712 65.993C22.126 65.9822 22.2764 66.0166 22.4247 66.0961C22.6503 66.2186 22.7922 66.3949 22.8481 66.6313C22.9039 66.8655 22.861 67.1148 22.7191 67.377L22.6976 67.4157C22.6095 67.5812 22.4978 67.7123 22.3645 67.809C22.2313 67.9057 22.0873 67.9594 21.9325 67.9702C21.7778 67.9788 21.6274 67.9444 21.4812 67.8649C21.2556 67.7445 21.1159 67.5661 21.06 67.3319C21.0041 67.0976 21.0471 66.8483 21.1868 66.5861L21.2061 66.5474L21.204 66.5453ZM21.3652 66.6979C21.2556 66.9021 21.219 67.0976 21.2534 67.2846C21.2878 67.4716 21.391 67.6113 21.5629 67.7037C21.7327 67.7939 21.9046 67.8025 22.0808 67.7295C22.2571 67.6564 22.401 67.5124 22.5171 67.2975L22.5364 67.261C22.6074 67.132 22.646 66.9988 22.6568 66.8655C22.6675 66.7323 22.6439 66.6119 22.588 66.5045C22.5321 66.3992 22.4483 66.3153 22.3366 66.2552C22.1689 66.1649 21.997 66.1563 21.8208 66.2315C21.6446 66.3067 21.4984 66.4507 21.3845 66.6635L21.3652 66.6979Z" fill="white"/>
<path d="M24.2836 67.2631C24.2471 67.2352 24.2041 67.2115 24.159 67.19C24.0386 67.132 23.9204 67.1191 23.8044 67.1449C23.6883 67.1729 23.583 67.2416 23.4863 67.3534L22.9168 68.5526L22.7255 68.4623L23.5529 66.7151L23.7421 66.8054L23.6131 67.0847C23.813 66.9257 24.0257 66.9021 24.2514 67.0074C24.3051 67.0332 24.3438 67.0611 24.3696 67.089L24.2815 67.2631H24.2836Z" fill="white"/>
<path d="M26.4263 69.3284C26.4779 69.193 26.4715 69.0684 26.407 68.9545C26.3425 68.8406 26.1964 68.6987 25.9729 68.5332C25.7494 68.3678 25.5946 68.2195 25.5108 68.0927C25.3905 67.9121 25.3668 67.7252 25.4399 67.5339C25.5108 67.3491 25.6441 67.2266 25.8418 67.1686C26.0395 67.1105 26.2566 67.1277 26.4951 67.218C26.6563 67.2803 26.7895 67.3663 26.8927 67.4759C26.9958 67.5876 27.0625 67.7101 27.0904 67.8498C27.1183 67.9874 27.1055 68.1249 27.0539 68.2625L26.8476 68.1829C26.9099 68.0175 26.9056 67.8606 26.8304 67.7166C26.7551 67.5726 26.6219 67.463 26.4306 67.3921C26.2458 67.3211 26.0803 67.3061 25.9385 67.3469C25.7966 67.3878 25.6999 67.4759 25.6505 67.6091C25.6032 67.7338 25.614 67.852 25.6849 67.968C25.7537 68.0841 25.8869 68.213 26.0825 68.3549C26.278 68.4967 26.4199 68.6214 26.508 68.7288C26.5961 68.8363 26.652 68.9437 26.6735 69.0555C26.695 69.1672 26.6842 69.2811 26.6391 69.4036C26.566 69.5949 26.4306 69.7196 26.2351 69.7776C26.0373 69.8356 25.8138 69.8163 25.5645 69.7217C25.3926 69.6572 25.2465 69.567 25.1283 69.4509C25.0079 69.3349 24.9327 69.2081 24.9005 69.0705C24.8682 68.933 24.879 68.7911 24.9327 68.6493L25.139 68.7267C25.0745 68.8986 25.0874 69.0576 25.1777 69.2059C25.268 69.3542 25.4184 69.4681 25.6312 69.5498C25.8203 69.6207 25.9879 69.6379 26.1341 69.5971C26.2802 69.5562 26.3791 69.4681 26.4328 69.3306L26.4263 69.3284Z" fill="white"/>
<path d="M27.6083 70.4245C27.4514 70.375 27.3225 70.2934 27.2193 70.1773C27.1162 70.0613 27.0517 69.9216 27.0238 69.7625C26.9958 69.6013 27.0087 69.4359 27.0625 69.2639L27.0861 69.1909C27.142 69.0125 27.2258 68.8642 27.3375 68.7438C27.4493 68.6235 27.5804 68.5418 27.7287 68.4989C27.877 68.4559 28.0231 68.4559 28.165 68.4989C28.3885 68.5676 28.5432 68.7009 28.627 68.8943C28.7108 69.0877 28.7108 69.3177 28.6292 69.582L28.5926 69.6959L27.2752 69.2876L27.2623 69.3263C27.1978 69.5347 27.2043 69.7281 27.2795 69.9044C27.3569 70.0806 27.4858 70.1967 27.6685 70.2547C27.7781 70.2891 27.8813 70.2977 27.9758 70.2848C28.0704 70.2719 28.1671 70.231 28.2638 70.1644L28.3605 70.302C28.1435 70.4717 27.892 70.5126 27.6062 70.4245H27.6083ZM28.1112 68.6729C27.9586 68.6256 27.8103 68.6407 27.6707 68.7224C27.531 68.8019 27.4192 68.933 27.3375 69.1156L28.4443 69.4595L28.4508 69.438C28.5002 69.2596 28.4938 69.0984 28.4336 68.9566C28.3734 68.8148 28.2638 68.7202 28.1112 68.6729Z" fill="white"/>
<path d="M30.0927 69.2575C30.0519 69.2382 30.0046 69.221 29.9552 69.2102C29.8262 69.1758 29.708 69.1844 29.5984 69.2339C29.491 69.2833 29.4007 69.3714 29.3255 69.4982L28.9924 70.7834L28.7861 70.7296L29.2696 68.8578L29.4716 68.9093L29.3986 69.2081C29.5662 69.0146 29.7704 68.9502 30.0111 69.0125C30.0691 69.0275 30.1121 69.0469 30.1422 69.0705L30.0884 69.2575H30.0927Z" fill="white"/>
<path d="M30.7418 70.8908L31.653 69.4079L31.8679 69.4531L30.7654 71.1981L30.5956 71.1638L30.2819 69.1242L30.4968 69.1694L30.7418 70.893V70.8908Z" fill="white"/>
<path d="M32.1129 71.4475L31.9023 71.4109L32.2225 69.5047L32.4331 69.5412L32.1129 71.4475ZM32.2784 68.9502C32.2848 68.9115 32.3042 68.8793 32.3343 68.8556C32.3643 68.832 32.403 68.8255 32.446 68.832C32.4911 68.8406 32.5234 68.8599 32.5449 68.89C32.5664 68.9222 32.575 68.9566 32.5685 68.9975C32.5621 69.0361 32.5427 69.0684 32.5126 69.0899C32.4825 69.1114 32.4439 69.12 32.3987 69.1114C32.3536 69.1049 32.3214 69.0856 32.2999 69.0533C32.2784 69.0211 32.2719 68.9867 32.2784 68.948V68.9502Z" fill="white"/>
<path d="M33.4819 71.499C33.6302 71.5184 33.7591 71.4926 33.8687 71.4217C33.9783 71.3507 34.0471 71.2497 34.0707 71.1186L34.2749 71.1444C34.2534 71.2605 34.204 71.3636 34.1245 71.4496C34.0449 71.5377 33.9461 71.6022 33.8279 71.6409C33.7097 71.6796 33.5872 71.6924 33.4582 71.6774C33.2068 71.6452 33.0177 71.5334 32.893 71.34C32.7684 71.1466 32.7232 70.9016 32.7619 70.6071L32.7705 70.5427C32.7942 70.3535 32.8479 70.1902 32.9338 70.0527C33.0177 69.9151 33.1273 69.8163 33.2605 69.7518C33.3938 69.6873 33.5442 69.6658 33.7097 69.6873C33.9203 69.7131 34.0858 69.7991 34.2061 69.9409C34.3265 70.0828 34.3781 70.2568 34.363 70.4631L34.1588 70.4374C34.1674 70.2869 34.1288 70.158 34.0428 70.0527C33.9547 69.9474 33.8365 69.8872 33.686 69.8678C33.4948 69.8442 33.3379 69.8936 33.2132 70.0183C33.0907 70.1429 33.0134 70.3299 32.9811 70.5792L32.9725 70.6415C32.9424 70.8865 32.9725 71.0842 33.0585 71.2347C33.1466 71.3851 33.2885 71.4732 33.4797 71.4969L33.4819 71.499Z" fill="white"/>
<path d="M35.4655 71.8665C35.3022 71.8558 35.1561 71.8042 35.0293 71.7161C34.9025 71.6258 34.8079 71.5076 34.7434 71.3572C34.679 71.2089 34.6532 71.0434 34.6661 70.865L34.6704 70.7877C34.6833 70.6028 34.7305 70.4374 34.8122 70.2934C34.8939 70.1494 35.0013 70.0398 35.1367 69.9646C35.2721 69.8893 35.4118 69.855 35.5622 69.8657C35.7965 69.8807 35.977 69.9732 36.1038 70.1429C36.2306 70.3127 36.2844 70.5341 36.265 70.8113L36.2564 70.9317L34.881 70.8371V70.8779C34.8638 71.0971 34.9132 71.282 35.0293 71.4367C35.1453 71.5914 35.2979 71.6753 35.487 71.6882C35.6009 71.6967 35.7041 71.6817 35.7944 71.6473C35.8846 71.6129 35.9684 71.5506 36.0458 71.4646L36.1726 71.5742C36.0007 71.7913 35.7643 71.888 35.4677 71.8687L35.4655 71.8665ZM35.5494 70.0462C35.3882 70.0355 35.2506 70.0849 35.1324 70.1945C35.0142 70.3041 34.9369 70.4589 34.9003 70.6544L36.0565 70.7339V70.7103C36.0651 70.5255 36.0222 70.3707 35.9297 70.2461C35.8373 70.1236 35.7105 70.0548 35.5494 70.0441V70.0462Z" fill="white"/>
<path d="M39.5897 70.7124C39.5961 70.951 39.5596 71.1638 39.4801 71.3464C39.4027 71.5291 39.2867 71.6709 39.1362 71.772C38.9858 71.873 38.8096 71.9267 38.6076 71.931C38.3045 71.9374 38.0552 71.8364 37.864 71.6237C37.6727 71.4109 37.5717 71.1208 37.5631 70.7511L37.5566 70.4825C37.5502 70.2461 37.5867 70.0355 37.6662 69.8506C37.7458 69.6658 37.8618 69.5218 38.0122 69.4208C38.1627 69.3198 38.3389 69.2661 38.5388 69.2596C38.7386 69.2553 38.917 69.2983 39.0718 69.3907C39.2265 69.4831 39.349 69.6164 39.4371 69.7905C39.5252 69.9645 39.5725 70.1687 39.5833 70.4008L39.5919 70.7124H39.5897ZM39.364 70.4352C39.3554 70.1214 39.2802 69.8786 39.1341 69.7045C38.9879 69.5304 38.7924 69.4466 38.5452 69.4531C38.3045 69.4595 38.1133 69.5519 37.9736 69.7346C37.8339 69.9173 37.7694 70.1666 37.7758 70.4846L37.7823 70.7554C37.7909 71.0627 37.8683 71.3056 38.0144 71.484C38.1627 71.6602 38.3583 71.7462 38.6033 71.7397C38.8526 71.7333 39.0438 71.6409 39.1792 71.4582C39.3146 71.2755 39.3769 71.0262 39.3705 70.7103L39.364 70.4352Z" fill="white"/>
<path d="M40.963 70.0054C40.9178 70.0011 40.8684 70.0011 40.8168 70.0054C40.6836 70.0161 40.574 70.0613 40.488 70.1429C40.4021 70.2246 40.344 70.3385 40.3182 70.4825L40.4257 71.8064L40.2129 71.8236L40.0582 69.8979L40.2667 69.8807L40.2946 70.1859C40.3892 69.9495 40.5611 69.8206 40.8104 69.8012C40.8706 69.7969 40.9178 69.8012 40.9522 69.8141L40.963 70.0075V70.0054Z" fill="white"/>
<path d="M41.3069 70.7468C41.2682 70.446 41.3026 70.201 41.4122 70.0075C41.5218 69.8141 41.6915 69.7045 41.9194 69.6744C42.1794 69.64 42.3922 69.7174 42.5555 69.9087L42.5297 69.6314L42.7274 69.6057L42.9724 71.484C43.0047 71.7311 42.9617 71.9353 42.8413 72.0965C42.721 72.2577 42.5447 72.3544 42.3083 72.3866C42.1751 72.4038 42.044 72.3909 41.9151 72.3479C41.7861 72.3049 41.6808 72.2362 41.597 72.1481L41.698 72.0041C41.8721 72.1696 42.0633 72.2383 42.2697 72.2104C42.4459 72.1867 42.5791 72.118 42.6629 71.9998C42.7489 71.8816 42.7811 71.7311 42.7597 71.5442L42.7274 71.3035C42.6157 71.5098 42.4308 71.6301 42.1708 71.6645C41.9494 71.6924 41.7582 71.628 41.6013 71.4689C41.4444 71.3099 41.3455 71.0799 41.3047 70.7769L41.3004 70.749L41.3069 70.7468ZM41.5261 70.7554C41.5583 71.0004 41.6314 71.1853 41.7496 71.3142C41.8656 71.4431 42.0139 71.4947 42.1923 71.4711C42.4523 71.4367 42.6221 71.297 42.7016 71.0477L42.5856 70.1558C42.519 70.0398 42.4373 69.956 42.3341 69.9022C42.2331 69.8507 42.1171 69.8335 41.986 69.8485C41.8076 69.8721 41.6787 69.9603 41.597 70.1128C41.5153 70.2654 41.4938 70.4782 41.5282 70.7511L41.5261 70.7554Z" fill="white"/>
<path d="M44.8271 71.1831C44.7949 71.1272 44.7648 71.0412 44.7347 70.9252C44.6788 71.0348 44.5993 71.1272 44.4961 71.2024C44.393 71.2755 44.2769 71.3249 44.1501 71.3507C43.9675 71.3851 43.8106 71.3636 43.6773 71.2841C43.5441 71.2046 43.4646 71.0864 43.4345 70.9316C43.3979 70.7468 43.4474 70.5856 43.5806 70.4481C43.7139 70.3105 43.918 70.216 44.1931 70.1623L44.5735 70.0892L44.5327 69.8743C44.5069 69.7389 44.4446 69.64 44.3457 69.5777C44.2468 69.5154 44.1179 69.5003 43.9567 69.5326C43.8106 69.5605 43.6967 69.6207 43.615 69.7152C43.5333 69.8077 43.5032 69.9087 43.5226 70.014L43.312 70.0526C43.2819 69.9022 43.327 69.7582 43.4474 69.6207C43.5656 69.4831 43.7289 69.395 43.9331 69.3542C44.1437 69.3134 44.3221 69.3348 44.4639 69.4165C44.6057 69.4982 44.6982 69.6336 44.739 69.8227L44.9131 70.721C44.9496 70.9037 44.9947 71.0391 45.0506 71.1229L45.0549 71.1444L44.8314 71.1874L44.8271 71.1831ZM44.1394 71.1594C44.2791 71.1315 44.3994 71.0735 44.4961 70.9854C44.5928 70.8973 44.6573 70.7898 44.6853 70.6673L44.6036 70.2504L44.2275 70.3234C44.019 70.3664 43.8621 70.4352 43.759 70.5341C43.6558 70.6329 43.615 70.7447 43.6408 70.8736C43.6623 70.9811 43.7182 71.0606 43.8106 71.1165C43.903 71.1723 44.0126 71.1874 44.1394 71.1616V71.1594Z" fill="white"/>
<path d="M45.3622 69.0813L45.4525 69.3993C45.4933 69.2661 45.5578 69.1565 45.6481 69.0684C45.7383 68.9803 45.8458 68.9201 45.9726 68.8878C46.1724 68.8363 46.3379 68.8535 46.4647 68.9416C46.5915 69.0297 46.6839 69.1866 46.7441 69.4122L47.06 70.6394L46.8537 70.6931L46.5378 69.4638C46.4927 69.2962 46.426 69.1823 46.3358 69.1178C46.2455 69.0533 46.123 69.0426 45.9704 69.0813C45.8415 69.1135 45.7405 69.1844 45.661 69.2897C45.5836 69.395 45.5385 69.5218 45.5256 69.6701L45.8544 70.951L45.6481 71.0047L45.1667 69.1328L45.3644 69.0813H45.3622Z" fill="white"/>
<path d="M46.9182 68.0798C46.9075 68.0411 46.9096 68.0045 46.9268 67.9702C46.944 67.9358 46.9741 67.9121 47.0171 67.8992C47.0601 67.8863 47.0987 67.8885 47.1331 67.9078C47.1675 67.9272 47.189 67.9551 47.2019 67.9938C47.2148 68.0325 47.2105 68.069 47.1933 68.1013C47.1761 68.1356 47.146 68.1593 47.1009 68.1722C47.0579 68.1851 47.0192 68.1829 46.987 68.1636C46.9548 68.1442 46.9311 68.1163 46.9204 68.0776L46.9182 68.0798ZM47.8853 70.3901L47.6812 70.4524L47.1181 68.6042L47.3223 68.5418L47.8853 70.3901Z" fill="white"/>
<path d="M48.5709 69.9839L49.7572 69.5713L49.8174 69.741L48.3817 70.2418L48.3302 70.0935L48.9147 68.2066L47.8423 68.5805L47.7821 68.4043L49.1103 67.9422L49.164 68.0948L48.5752 69.986L48.5709 69.9839Z" fill="white"/>
<path d="M51.3883 69.1028C51.3454 69.0555 51.2981 68.9781 51.2465 68.8685C51.2143 68.9867 51.1541 69.0942 51.0681 69.1866C50.98 69.279 50.8768 69.352 50.7586 69.4015C50.5867 69.4724 50.4277 69.4831 50.2815 69.4294C50.1354 69.3757 50.0322 69.279 49.9721 69.1328C49.9011 68.9588 49.9162 68.7911 50.0172 68.6299C50.1204 68.4688 50.3009 68.3355 50.5588 68.2281L50.9177 68.0798L50.8339 67.8778C50.7801 67.751 50.7006 67.665 50.591 67.6263C50.4814 67.5855 50.3525 67.5962 50.202 67.6585C50.0645 67.7166 49.9656 67.7982 49.9033 67.9057C49.841 68.0131 49.8324 68.1163 49.8732 68.2152L49.6755 68.2947C49.6175 68.1528 49.6325 68.0024 49.7206 67.8434C49.8087 67.6843 49.9506 67.5661 50.1418 67.4866C50.3417 67.4049 50.5179 67.3899 50.6748 67.4415C50.8317 67.4931 50.9478 67.607 51.0251 67.7853L51.3754 68.6299C51.4464 68.8019 51.5194 68.9244 51.5904 68.9953L51.599 69.0146L51.3883 69.1028ZM50.7092 69.2188C50.8403 69.1651 50.9456 69.0834 51.023 68.976C51.1004 68.8685 51.1412 68.7524 51.1433 68.6256L50.98 68.2324L50.6275 68.3785C50.432 68.4623 50.2923 68.5612 50.2106 68.6772C50.129 68.7933 50.1118 68.9115 50.1633 69.034C50.2042 69.135 50.2772 69.2016 50.3783 69.236C50.4793 69.2704 50.591 69.2639 50.7092 69.2145V69.2188Z" fill="white"/>
<path d="M51.4013 66.4293L51.6119 66.8763L51.9729 66.7065L52.0481 66.8655L51.6871 67.0353L52.2373 68.2023C52.2824 68.299 52.334 68.3635 52.392 68.3936C52.45 68.4236 52.5188 68.4215 52.6005 68.3828C52.6327 68.3678 52.6821 68.3377 52.7488 68.2925L52.8304 68.4451C52.7874 68.4881 52.723 68.5289 52.637 68.5698C52.5038 68.6321 52.3898 68.6386 52.2931 68.5913C52.1964 68.5418 52.1126 68.443 52.0417 68.2947L51.4915 67.1277L51.1692 67.2803L51.0939 67.1213L51.4163 66.9687L51.2057 66.5217L51.3991 66.4293H51.4013Z" fill="white"/>
<path d="M52.0976 66.0188C52.0804 65.9822 52.0761 65.9457 52.0868 65.9092C52.0976 65.8726 52.1234 65.8447 52.1642 65.8232C52.205 65.8017 52.2437 65.7996 52.2802 65.8103C52.3168 65.8232 52.3447 65.8468 52.3619 65.8834C52.3791 65.9199 52.3834 65.9543 52.3727 65.9908C52.3619 66.0274 52.3361 66.0553 52.2953 66.0768C52.2545 66.0983 52.2179 66.1004 52.1814 66.0897C52.1448 66.0789 52.1191 66.0531 52.0997 66.0166L52.0976 66.0188ZM53.4537 68.1228L53.2624 68.2195L52.3855 66.498L52.5768 66.4013L53.4537 68.1228Z" fill="white"/>
<path d="M53.4386 67.0203C53.3462 66.8591 53.2968 66.6957 53.286 66.5303C53.2753 66.3648 53.3075 66.2143 53.3806 66.0768C53.4536 65.9393 53.5633 65.8296 53.7094 65.748C53.9329 65.6212 54.1586 65.5975 54.3864 65.6749C54.6142 65.7523 54.8011 65.9221 54.9473 66.1821L54.9688 66.2208C55.0612 66.3841 55.1128 66.5475 55.1235 66.7129C55.1343 66.8784 55.102 67.0289 55.029 67.1642C54.9559 67.2996 54.8441 67.4071 54.698 67.4909C54.4745 67.6177 54.2488 67.6414 54.021 67.564C53.7932 67.4866 53.6062 67.3168 53.4579 67.0589L53.4365 67.0224L53.4386 67.0203ZM53.6535 66.9665C53.7674 67.1686 53.9136 67.3039 54.0898 67.3727C54.266 67.4436 54.4401 67.4307 54.6099 67.334C54.7775 67.2395 54.8764 67.0976 54.9086 66.9085C54.9387 66.7194 54.8957 66.5217 54.7754 66.3089L54.756 66.2724C54.6829 66.1434 54.5927 66.0403 54.4852 65.9607C54.3778 65.8812 54.2639 65.8361 54.1435 65.8254C54.0253 65.8146 53.9093 65.8425 53.7975 65.9049C53.632 65.9994 53.5332 66.1413 53.5031 66.3304C53.473 66.5195 53.516 66.7194 53.6363 66.93L53.6557 66.9644L53.6535 66.9665Z" fill="white"/>
<path d="M55.0118 65.0173L55.1987 65.2902C55.1944 65.1505 55.2202 65.0259 55.2783 64.9141C55.3341 64.8024 55.418 64.7121 55.5276 64.639C55.7016 64.5251 55.8628 64.4908 56.0111 64.5337C56.1594 64.5767 56.2969 64.6949 56.4259 64.8905L57.1179 65.9543L56.9395 66.0704L56.2454 65.0065C56.1508 64.8626 56.0498 64.7744 55.9423 64.7422C55.8349 64.71 55.7167 64.7379 55.5834 64.8239C55.4717 64.8969 55.3965 64.9936 55.3578 65.1204C55.3169 65.2451 55.3148 65.3805 55.3513 65.5245L56.0734 66.6334L55.8951 66.7495L54.8398 65.129L55.0096 65.0173H55.0118Z" fill="white"/>
<path d="M58.2849 64.4993C58.2226 64.4134 58.1366 64.3704 58.0313 64.3704C57.9238 64.3704 57.7906 64.4048 57.6316 64.4779C57.4725 64.5509 57.3393 64.5961 57.2361 64.6154C57.133 64.6347 57.0406 64.6283 56.9653 64.6025C56.888 64.5746 56.8213 64.523 56.7633 64.4456C56.6731 64.3231 56.6494 64.1834 56.6924 64.0287C56.7354 63.8739 56.8364 63.7364 56.9976 63.6182C57.1717 63.4893 57.3414 63.4312 57.5091 63.4377C57.6767 63.4463 57.8121 63.5193 57.9152 63.6569L57.7433 63.7837C57.6767 63.6934 57.5821 63.644 57.4618 63.6418C57.3414 63.6397 57.2232 63.6784 57.1072 63.7643C56.9933 63.8482 56.9224 63.9406 56.8901 64.0416C56.8579 64.1426 56.8729 64.2329 56.9331 64.3145C56.9911 64.3919 57.0642 64.4306 57.1523 64.4327C57.2404 64.4327 57.3737 64.3962 57.5499 64.3188C57.7261 64.2436 57.868 64.1963 57.9733 64.1813C58.0786 64.1662 58.1688 64.1727 58.2484 64.2028C58.3257 64.2329 58.3945 64.2866 58.4547 64.3683C58.5514 64.4993 58.5772 64.6433 58.5277 64.8002C58.4805 64.9571 58.3709 65.0989 58.2011 65.2236C58.0206 65.3568 57.84 65.4213 57.6638 65.417C57.4876 65.4127 57.3479 65.344 57.249 65.2086L57.421 65.0818C57.5026 65.1785 57.6015 65.2236 57.7218 65.2236C57.8422 65.2236 57.9647 65.1742 58.0936 65.0796C58.214 64.9915 58.2913 64.8926 58.3257 64.7852C58.3601 64.6777 58.3494 64.5832 58.2892 64.5036L58.2849 64.4993Z" fill="white"/>
<path d="M61.0874 63.4377L60.9541 63.558L58.8974 61.2606L59.0306 61.1403L61.0874 63.4377Z" fill="white"/>
<path d="M63.0022 59.8787C62.9184 59.8014 62.826 59.7713 62.725 59.7885C62.624 59.8057 62.4821 59.8701 62.293 59.9819C62.1039 60.0936 61.9405 60.1689 61.8008 60.2097C61.5322 60.2849 61.3087 60.2398 61.1303 60.0786C60.9756 59.9368 60.9068 59.7584 60.9219 59.5392C60.9369 59.32 61.0358 59.1115 61.2206 58.9116C61.3431 58.7784 61.4763 58.6817 61.6203 58.6215C61.7643 58.5613 61.9104 58.5441 62.0566 58.5678C62.2027 58.5914 62.3295 58.6537 62.4413 58.7547L62.1383 59.0879C62.0372 58.9954 61.9319 58.9568 61.8159 58.9675C61.6998 58.9783 61.5902 59.0427 61.4849 59.1588C61.3861 59.2684 61.3302 59.3737 61.3237 59.4768C61.3151 59.58 61.3517 59.6703 61.4355 59.7455C61.5064 59.81 61.5945 59.8315 61.6998 59.8078C61.8073 59.7863 61.9513 59.7197 62.1318 59.6122C62.3123 59.5026 62.4735 59.4296 62.6132 59.3909C62.7529 59.3522 62.8776 59.3458 62.9893 59.3694C63.1011 59.3952 63.2064 59.4511 63.3052 59.5413C63.4643 59.6875 63.5373 59.8658 63.518 60.0743C63.5008 60.2828 63.3955 60.4934 63.2042 60.7019C63.0774 60.8415 62.9356 60.9447 62.7765 61.0135C62.6175 61.0822 62.4649 61.108 62.3145 61.0908C62.164 61.0736 62.0308 61.0092 61.9105 60.8974L62.2156 60.5643C62.3252 60.6632 62.4413 60.704 62.5681 60.6868C62.6927 60.6696 62.8174 60.5944 62.942 60.459C63.0473 60.3429 63.1032 60.2333 63.1118 60.1323C63.1183 60.0313 63.0839 59.9454 63.0044 59.8744L63.0022 59.8787Z" fill="white"/>
<path d="M64.657 59.0062C64.4851 59.2211 64.2766 59.3393 64.0359 59.3651C63.7931 59.3887 63.561 59.3114 63.3353 59.1308L63.2945 59.0965C63.144 58.9761 63.0323 58.8386 62.9614 58.686C62.8905 58.5334 62.8625 58.3765 62.8819 58.2196C62.9012 58.0627 62.9614 57.9187 63.0645 57.7898C63.23 57.5856 63.4234 57.4782 63.6426 57.4717C63.864 57.4653 64.094 57.5577 64.3325 57.7511L64.4679 57.8607L63.677 58.845C63.8103 58.9353 63.9414 58.9718 64.0725 58.9589C64.2036 58.946 64.3132 58.8815 64.4013 58.7719C64.5259 58.6172 64.5646 58.441 64.5173 58.2433L64.8376 58.2003C64.8784 58.3335 64.8848 58.4689 64.8526 58.6108C64.8204 58.7504 64.7559 58.8837 64.6549 59.0105L64.657 59.0062ZM63.3353 58.009C63.2601 58.1014 63.2322 58.2024 63.2515 58.312C63.2708 58.4216 63.331 58.5312 63.4342 58.6387L63.9521 57.994L63.9263 57.9746C63.8081 57.8908 63.6964 57.8521 63.5975 57.8586C63.4965 57.865 63.4084 57.9144 63.3332 58.009H63.3353Z" fill="white"/>
<path d="M64.7108 56.3198C64.6699 56.3606 64.6313 56.4057 64.5947 56.4552C64.4787 56.6164 64.4615 56.7689 64.5431 56.9151L65.6134 57.6931L65.3577 58.0434L63.7931 56.9065L64.0359 56.5712L64.2165 56.6894C64.1412 56.5067 64.1606 56.3391 64.268 56.1887C64.3046 56.1392 64.3411 56.1027 64.3777 56.0791L64.7065 56.3198H64.7108Z" fill="white"/>
<path d="M66.0905 56.0318L65.1578 54.9315L65.4028 54.5554L66.6514 56.1758L66.4451 56.4917L64.4593 55.9974L64.7065 55.6213L66.0905 56.0318Z" fill="white"/>
<path d="M65.0998 54.0739C65.0417 54.0396 65.0052 53.9923 64.9902 53.9343C64.9751 53.8762 64.9859 53.8118 65.0267 53.7451C65.0675 53.6785 65.1169 53.6377 65.1771 53.6226C65.2373 53.6076 65.2953 53.6183 65.3534 53.6527C65.4092 53.6871 65.4458 53.7322 65.4608 53.7924C65.4759 53.8526 65.463 53.9149 65.4243 53.9815C65.3856 54.0482 65.334 54.089 65.276 54.104C65.218 54.1169 65.1599 54.1083 65.1041 54.0739H65.0998ZM67.4273 54.9272L67.2037 55.2989L65.5446 54.3082L65.7681 53.9364L67.4273 54.9272Z" fill="white"/>
<path d="M67.8077 53.6141C67.8592 53.5195 67.8743 53.4249 67.8528 53.3325C67.8313 53.2401 67.7797 53.1692 67.7002 53.1198L67.8936 52.7609C67.9968 52.8232 68.0784 52.9091 68.1365 53.0187C68.1945 53.1305 68.2224 53.253 68.2181 53.3884C68.2138 53.5238 68.1795 53.6527 68.1128 53.7752C67.9839 54.0138 67.8055 54.1599 67.5755 54.2158C67.3456 54.2717 67.0963 54.2266 66.8255 54.0804L66.7868 54.0589C66.5289 53.9192 66.357 53.7387 66.2775 53.5152C66.198 53.2917 66.2216 53.0617 66.3484 52.8232C66.458 52.6212 66.6063 52.4879 66.7911 52.4234C66.9781 52.359 67.1694 52.3762 67.3628 52.4729L67.1694 52.8318C67.0705 52.7823 66.9716 52.7737 66.8749 52.8017C66.7782 52.8296 66.7052 52.8919 66.6514 52.9887C66.5848 53.1133 66.5784 53.2315 66.6321 53.3476C66.6858 53.4636 66.804 53.5711 66.9845 53.6699L67.0469 53.7022C67.2317 53.801 67.3864 53.8419 67.5132 53.8247C67.64 53.8075 67.7367 53.7344 67.8055 53.6098L67.8077 53.6141Z" fill="white"/>
<path d="M69.0369 51.9227C68.9209 52.172 68.7489 52.3375 68.519 52.4191C68.289 52.5008 68.044 52.4814 67.784 52.3589L67.7346 52.3353C67.5605 52.2536 67.4186 52.1483 67.3133 52.0151C67.2059 51.884 67.1436 51.74 67.1242 51.581C67.1049 51.4241 67.1285 51.2693 67.1994 51.1189C67.3112 50.8804 67.4724 50.7321 67.6851 50.6719C67.8979 50.6117 68.1429 50.6482 68.4223 50.7772L68.5813 50.8503L68.0483 51.9957C68.1988 52.0516 68.3363 52.0559 68.4588 52.0108C68.5835 51.9657 68.6737 51.8775 68.7339 51.7507C68.8177 51.5702 68.8134 51.3897 68.721 51.2092L69.0219 51.091C69.0928 51.2092 69.1315 51.3424 69.1358 51.4864C69.1379 51.6304 69.1079 51.7744 69.0391 51.9205L69.0369 51.9227ZM67.5132 51.2715C67.4638 51.379 67.4595 51.4843 67.5046 51.5853C67.5497 51.6863 67.6357 51.7787 67.7604 51.8582L68.1085 51.1082L68.0784 51.0953C67.943 51.0415 67.827 51.0308 67.7303 51.0609C67.6336 51.091 67.5605 51.1597 67.5089 51.2693L67.5132 51.2715Z" fill="white"/>
<path d="M69.4109 47.502C69.6516 47.5858 69.8472 47.7018 69.9998 47.8501C70.1524 47.9963 70.2491 48.166 70.292 48.353C70.335 48.5421 70.32 48.7356 70.2491 48.9376C70.1781 49.1374 70.0685 49.2965 69.9159 49.4168C69.7634 49.5372 69.5828 49.6102 69.3744 49.6317C69.1638 49.6532 68.9424 49.6231 68.7081 49.5415L68.5706 49.492C68.332 49.4082 68.1343 49.29 67.9817 49.1417C67.8292 48.9934 67.7303 48.8237 67.6873 48.6345C67.6443 48.4454 67.6594 48.252 67.7281 48.0521C67.7991 47.8523 67.9087 47.6911 68.0591 47.5707C68.2095 47.4504 68.3901 47.3795 68.5985 47.358C68.8091 47.3365 69.0327 47.3687 69.2734 47.4525L69.4109 47.4998V47.502ZM69.1337 47.8824C68.8607 47.7856 68.6351 47.7642 68.4545 47.8157C68.274 47.8673 68.1494 47.9877 68.0827 48.1768C68.0183 48.3616 68.0398 48.5314 68.1472 48.6861C68.2547 48.8409 68.4417 48.9655 68.7038 49.0601L68.8457 49.1095C69.1143 49.2041 69.3421 49.2256 69.527 49.1718C69.7118 49.1181 69.8364 48.9977 69.9009 48.8129C69.9675 48.6238 69.946 48.454 69.8386 48.3014C69.7311 48.1488 69.5377 48.0242 69.2626 47.9275L69.1337 47.8824Z" fill="white"/>
<path d="M69.5119 46.0276C69.4861 46.0792 69.4668 46.1351 69.4496 46.1931C69.3937 46.3844 69.4302 46.5348 69.5592 46.6423L70.8293 47.0076L70.7089 47.4246L68.8521 46.8916L68.966 46.494L69.1766 46.5434C69.0434 46.3973 69.0026 46.234 69.0541 46.0556C69.0713 45.9954 69.0928 45.9481 69.1208 45.9159L69.5119 46.0298V46.0276Z" fill="white"/>
<path d="M70.1093 45.961C69.8171 45.8922 69.6 45.7697 69.456 45.5914C69.312 45.413 69.269 45.211 69.3206 44.9832C69.3701 44.7682 69.484 44.6178 69.6623 44.5297L69.4775 44.4674L69.5656 44.087L71.3902 44.5104C71.6374 44.5684 71.8136 44.6909 71.9211 44.8757C72.0285 45.0627 72.0522 45.2862 71.9898 45.5484C71.9576 45.6859 71.8974 45.8149 71.8093 45.9331C71.7212 46.0513 71.6223 46.1351 71.5149 46.1802L71.3064 45.9202C71.4912 45.8256 71.6051 45.6838 71.6503 45.4946C71.6825 45.355 71.6696 45.2346 71.6137 45.1357C71.5557 45.0369 71.4547 44.9703 71.3064 44.9359L71.1796 44.9058C71.2871 45.0584 71.3172 45.2368 71.2699 45.4409C71.2183 45.6623 71.0894 45.8213 70.8809 45.9202C70.6724 46.019 70.4145 46.0319 70.1051 45.961H70.1093ZM70.2426 45.5484C70.4317 45.5914 70.5886 45.5892 70.7154 45.5355C70.8422 45.4839 70.9217 45.3893 70.9518 45.2518C70.9905 45.082 70.9475 44.938 70.8207 44.822L69.9933 44.6286C69.8321 44.6758 69.7311 44.7833 69.6924 44.9552C69.6602 45.0949 69.6903 45.2153 69.7827 45.3184C69.8751 45.4216 70.0277 45.4968 70.2426 45.5462V45.5484Z" fill="white"/>
<path d="M71.7491 42.8426C71.7105 42.8555 71.6481 42.862 71.5622 42.862C71.6825 43.021 71.7255 43.2015 71.6911 43.3971C71.6589 43.5884 71.5772 43.7367 71.4483 43.8377C71.3193 43.9408 71.1732 43.9774 71.012 43.9516C70.8078 43.9172 70.666 43.8162 70.5822 43.6464C70.4984 43.4766 70.4812 43.2531 70.5285 42.9716L70.5714 42.7094L70.4468 42.6879C70.3479 42.6707 70.2641 42.6879 70.1953 42.7309C70.1266 42.7739 70.0836 42.8555 70.0642 42.9673C70.047 43.064 70.0599 43.1478 70.0965 43.2187C70.1352 43.2897 70.191 43.3305 70.2663 43.3434L70.1953 43.7711C70.09 43.7539 69.9976 43.7023 69.9203 43.6185C69.8429 43.5347 69.7849 43.4272 69.7526 43.3004C69.7204 43.1715 69.7182 43.0361 69.7419 42.8878C69.7784 42.6643 69.8644 42.4966 69.9998 42.3827C70.1352 42.2688 70.3028 42.228 70.507 42.2581L71.3666 42.4021C71.5385 42.43 71.6782 42.43 71.79 42.3978L71.8201 42.4021L71.747 42.8383L71.7491 42.8426ZM71.3623 43.2617C71.3774 43.1779 71.3688 43.0941 71.3408 43.0124C71.3129 42.9308 71.2656 42.8663 71.2033 42.8169L70.8444 42.7567L70.8057 42.9866C70.7799 43.1457 70.7863 43.2682 70.8293 43.3584C70.8723 43.4487 70.9432 43.5003 71.0442 43.5175C71.1259 43.5304 71.1968 43.5153 71.2549 43.468C71.3129 43.4208 71.3494 43.352 71.3645 43.2617H71.3623Z" fill="white"/>
<path d="M70.004 41.3275L70.2275 41.3383C70.0707 41.1771 70.004 40.9815 70.0298 40.7516C70.0728 40.3518 70.3221 40.1713 70.782 40.2121L72.0521 40.3454L72.007 40.7774L70.7627 40.6463C70.6402 40.6334 70.5478 40.6506 70.4833 40.6978C70.4188 40.7451 70.3801 40.8268 70.3672 40.9471C70.3479 41.1212 70.4145 41.2588 70.5628 41.3619L71.9296 41.5059L71.8845 41.9379L69.9632 41.7359L70.0062 41.3297L70.004 41.3275Z" fill="white"/>
<path d="M69.6516 39.6835C69.585 39.6792 69.5312 39.6555 69.4904 39.6104C69.4496 39.5653 69.4302 39.5029 69.4345 39.4256C69.4388 39.346 69.4646 39.288 69.5119 39.2472C69.5592 39.2063 69.615 39.1892 69.6817 39.1935C69.7461 39.1978 69.7999 39.2214 69.8407 39.2665C69.8815 39.3117 69.8987 39.374 69.8944 39.4513C69.8901 39.5309 69.8643 39.5889 69.8192 39.6276C69.7741 39.6663 69.7182 39.6856 69.6516 39.6813V39.6835ZM72.1102 39.3697L72.0844 39.8038L70.1545 39.6878L70.1803 39.2536L72.1102 39.3697Z" fill="white"/>
<path d="M71.8028 38.3596L71.8222 37.3302L72.1682 37.3366L72.1402 38.9055L71.8566 38.9012L70.5757 37.8975L70.5585 38.8603L70.2082 38.8539L70.2361 37.3409L70.5112 37.3452L71.805 38.3596H71.8028Z" fill="white"/>
<path d="M72.1166 35.7549C72.0801 35.7763 72.0221 35.7935 71.9382 35.8129C72.0865 35.9461 72.166 36.1116 72.1746 36.3115C72.1832 36.5049 72.1338 36.6661 72.0264 36.7929C71.921 36.9197 71.7857 36.9863 71.6223 36.9927C71.416 37.0013 71.2548 36.9304 71.1388 36.7821C71.0227 36.6338 70.9582 36.4168 70.9475 36.1331L70.9367 35.8666L70.81 35.8709C70.7089 35.8752 70.6316 35.9053 70.5735 35.9633C70.5155 36.0213 70.4897 36.1073 70.494 36.2212C70.4983 36.3201 70.5263 36.3996 70.5778 36.4619C70.6294 36.5242 70.6939 36.5522 70.7691 36.55L70.7863 36.9841C70.681 36.9884 70.58 36.9562 70.4854 36.8896C70.3909 36.823 70.3157 36.7306 70.2576 36.6124C70.1996 36.4942 70.1695 36.3609 70.1631 36.2105C70.1545 35.9848 70.2039 35.8021 70.3135 35.6624C70.421 35.5227 70.58 35.4475 70.7842 35.4368L71.6546 35.4024C71.8286 35.3959 71.9662 35.3659 72.0672 35.3121H72.0973L72.1145 35.7527L72.1166 35.7549ZM71.8222 36.2427C71.8179 36.1567 71.7942 36.0772 71.7513 36.0042C71.7061 35.9311 71.6481 35.8752 71.5772 35.8408L71.214 35.8559L71.2226 36.0901C71.229 36.2513 71.2613 36.3695 71.3214 36.449C71.3795 36.5285 71.4611 36.5651 71.5643 36.5608C71.6481 36.5565 71.7126 36.5264 71.7599 36.4705C71.8071 36.4125 71.8286 36.3373 71.8243 36.2449L71.8222 36.2427Z" fill="white"/>
<path d="M69.6193 34.5212L70.0878 34.4804L70.0578 34.1409L70.378 34.1129L70.4081 34.4525L71.4826 34.3579C71.5557 34.3515 71.6073 34.3321 71.6374 34.2999C71.6674 34.2677 71.6782 34.2139 71.6717 34.1409C71.6674 34.0914 71.6567 34.042 71.6417 33.9904L71.9769 33.9603C72.0135 34.057 72.0349 34.1494 72.0435 34.2419C72.0715 34.575 71.9038 34.7555 71.5364 34.7877L70.4446 34.8823L70.4725 35.1982L70.1523 35.2262L70.1244 34.9102L69.6559 34.9511L69.6172 34.5191L69.6193 34.5212Z" fill="white"/>
<path d="M69.5226 33.8787C69.456 33.8873 69.398 33.8722 69.3507 33.8357C69.3013 33.7991 69.2733 33.7411 69.2626 33.6637C69.2518 33.5864 69.2669 33.5219 69.3056 33.4746C69.3443 33.4273 69.3958 33.3994 69.4625 33.3908C69.5269 33.3822 69.585 33.3973 69.6322 33.4359C69.6795 33.4746 69.7096 33.5305 69.7182 33.61C69.7268 33.6874 69.7139 33.7497 69.6752 33.797C69.6365 33.8443 69.585 33.8722 69.5205 33.8787H69.5226ZM71.8845 33.1308L71.9361 33.5627L70.0169 33.7927L69.9654 33.3607L71.8845 33.1308Z" fill="white"/>
<path d="M70.8637 32.8299C70.6767 32.8621 70.5027 32.8514 70.3393 32.8041C70.1781 32.7547 70.0449 32.6709 69.9417 32.5505C69.8386 32.4302 69.772 32.284 69.744 32.1099C69.701 31.852 69.7483 31.6307 69.888 31.4416C70.0277 31.2546 70.2319 31.1299 70.5027 31.0719L70.6037 31.0526C70.7928 31.0203 70.9647 31.0289 71.1259 31.0762C71.2849 31.1235 71.4182 31.2073 71.5213 31.3298C71.6245 31.4502 71.6911 31.5985 71.7212 31.7747C71.7663 32.0433 71.7126 32.2733 71.56 32.4645C71.4074 32.6558 71.1818 32.7762 70.8852 32.8277L70.8637 32.832V32.8299ZM70.8293 32.3958C71.0249 32.3635 71.1732 32.2969 71.2699 32.1981C71.3666 32.0992 71.4031 31.9767 71.3795 31.8327C71.3559 31.6887 71.2806 31.5856 71.1538 31.5232C71.027 31.4609 70.8551 31.448 70.6381 31.4845C70.4446 31.5168 70.3006 31.5834 70.1996 31.6844C70.1008 31.7854 70.0642 31.9079 70.0879 32.0498C70.1115 32.1895 70.1846 32.2905 70.3092 32.3549C70.4339 32.4194 70.6058 32.4323 70.8272 32.3958H70.8293Z" fill="white"/>
<path d="M69.4668 30.4788L69.6817 30.4164C69.4818 30.3154 69.355 30.1542 69.3013 29.9264C69.211 29.5353 69.3873 29.2817 69.8343 29.1721L71.0786 28.882L71.1775 29.3053L69.9589 29.589C69.8386 29.617 69.7569 29.6642 69.7118 29.7287C69.6666 29.7932 69.658 29.8856 69.6838 30.0017C69.7225 30.1714 69.83 30.281 70.0041 30.3283L71.343 30.0167L71.4418 30.4401L69.5592 30.8785L69.4668 30.4809V30.4788Z" fill="white"/>
<path d="M70.1265 27.47C70.0535 27.4915 70.004 27.5388 69.9847 27.6118C69.9632 27.6849 69.9589 27.7967 69.9718 27.9471C69.9847 28.0976 69.9826 28.2265 69.9654 28.3361C69.9267 28.5747 69.8128 28.7208 69.6215 28.7767C69.4625 28.824 69.3077 28.796 69.1616 28.6929C69.0133 28.5897 68.9101 28.435 68.8478 28.2265C68.7812 28.0051 68.7833 27.8096 68.8521 27.6398C68.9209 27.47 69.0434 27.3604 69.2175 27.3088L69.3421 27.7258C69.2626 27.7494 69.2046 27.7988 69.1702 27.874C69.1336 27.9493 69.1315 28.0352 69.1616 28.1341C69.1895 28.2244 69.2325 28.2931 69.2905 28.3383C69.3507 28.3834 69.4152 28.3963 69.4861 28.3748C69.5506 28.3554 69.5914 28.3146 69.6108 28.2501C69.6301 28.1857 69.6344 28.0675 69.6215 27.8934C69.6086 27.7193 69.6129 27.5796 69.6365 27.47C69.658 27.3626 69.6967 27.2744 69.7547 27.21C69.8106 27.1433 69.888 27.0961 69.9869 27.066C70.1545 27.0165 70.3092 27.0445 70.4532 27.1519C70.5972 27.2594 70.7025 27.4249 70.7691 27.6484C70.8143 27.801 70.8272 27.9428 70.8078 28.0782C70.7885 28.2136 70.7412 28.3275 70.6638 28.4221C70.5886 28.5166 70.494 28.5811 70.3844 28.6133L70.2641 28.2093C70.3608 28.1749 70.4253 28.1147 70.4575 28.0309C70.4897 27.9471 70.4897 27.8483 70.4575 27.7344C70.4253 27.6247 70.3801 27.5474 70.32 27.5022C70.2619 27.4571 70.1975 27.4442 70.1308 27.4657L70.1265 27.47Z" fill="white"/>
<path d="M24.2149 29.243H18.9237L17.7224 32.5161H16.6908L21.1008 20.8615H22.0378L26.4478 32.5161H25.4227L24.2149 29.243ZM19.2289 28.4113H23.9032L21.565 22.0628L19.2268 28.4113H19.2289Z" fill="white"/>
<path d="M29.1987 32.5183H28.2144V20.8636H29.1987V32.5183Z" fill="white"/>
<path d="M40.4494 28.8841C40.3161 30.1113 39.8777 31.0504 39.1319 31.7016C38.3862 32.3528 37.3955 32.6773 36.1576 32.6773C35.2936 32.6773 34.5285 32.4602 33.8645 32.0283C33.2004 31.5963 32.6867 30.9838 32.3235 30.1908C31.9603 29.3977 31.7755 28.493 31.7712 27.4721V25.9592C31.7712 24.9233 31.9517 24.0056 32.3149 23.2061C32.6781 22.4067 33.2004 21.7877 33.8795 21.3536C34.5608 20.9195 35.343 20.7003 36.2285 20.7003C37.4771 20.7003 38.4636 21.0355 39.1857 21.7082C39.9078 22.3809 40.329 23.3114 40.4472 24.5021H39.4543C39.2093 22.5227 38.1326 21.532 36.2285 21.532C35.1711 21.532 34.3308 21.9274 33.7033 22.7183C33.0757 23.5092 32.762 24.6009 32.762 25.9957V27.4227C32.762 28.7681 33.0671 29.8426 33.6775 30.6421C34.2878 31.4437 35.1152 31.8434 36.1554 31.8434C37.1956 31.8434 37.9607 31.5963 38.4851 31.102C39.0073 30.6077 39.3318 29.8684 39.4543 28.8798H40.4472L40.4494 28.8841Z" fill="white"/>
<path d="M43.6623 27.7709V32.5183H42.678V20.8636H46.6474C47.8595 20.8636 48.8159 21.1731 49.5165 21.792C50.2192 22.411 50.5695 23.262 50.5695 24.3452C50.5695 25.4283 50.2321 26.2837 49.5573 26.879C48.8825 27.4743 47.9046 27.7709 46.6238 27.7709H43.6623ZM43.6623 26.9391H46.6474C47.6016 26.9391 48.3302 26.7113 48.8331 26.2579C49.3338 25.8044 49.5853 25.1704 49.5853 24.3581C49.5853 23.5457 49.336 22.9074 48.8374 22.4303C48.3388 21.951 47.6295 21.7082 46.7119 21.6974H43.6623V26.9413V26.9391Z" fill="white"/>
<path d="M57.7949 29.243H52.5037L51.3024 32.5161H50.2708L54.6808 20.8615H55.6178L60.0278 32.5161H59.0027L57.7949 29.243ZM52.8089 28.4113H57.4833L55.145 22.0628L52.8068 28.4113H52.8089Z" fill="white"/>
<path d="M30.8664 48.5808C30.8664 47.9361 30.6386 47.4246 30.1852 47.0485C29.7317 46.6724 28.9021 46.3156 27.6965 45.9761C26.4908 45.6365 25.6097 45.2669 25.0552 44.8671C24.2643 44.3019 23.871 43.5605 23.871 42.6428C23.871 41.7251 24.2385 41.0267 24.9714 40.47C25.7042 39.9134 26.6434 39.634 27.7846 39.634C28.5583 39.634 29.2503 39.7845 29.8628 40.0832C30.4731 40.3819 30.9481 40.7989 31.2834 41.3318C31.6186 41.8648 31.7884 42.4601 31.7884 43.1178H30.7955C30.7955 42.3204 30.5226 41.68 29.9788 41.1943C29.4351 40.7086 28.7044 40.4679 27.7846 40.4679C26.8648 40.4679 26.1835 40.6678 25.6548 41.0653C25.1261 41.4629 24.8618 41.983 24.8618 42.6256C24.8618 43.2188 25.0982 43.7023 25.5731 44.0763C26.0481 44.4502 26.8089 44.7812 27.8534 45.067C28.9 45.3528 29.6909 45.6494 30.2303 45.9567C30.7697 46.2641 31.1759 46.6294 31.4467 47.0571C31.7196 47.4848 31.855 47.9877 31.855 48.5701C31.855 49.4878 31.4875 50.2249 30.7547 50.7794C30.0218 51.3338 29.0547 51.6111 27.8534 51.6111C27.0324 51.6111 26.2781 51.4649 25.5925 51.1705C24.9069 50.8761 24.3868 50.4656 24.0322 49.9369C23.6776 49.4082 23.4992 48.8022 23.4992 48.1209H24.4835C24.4835 48.9419 24.7909 49.5909 25.4034 50.0659C26.0159 50.5408 26.8325 50.7772 27.8534 50.7772C28.7603 50.7772 29.4888 50.5774 30.039 50.1776C30.5892 49.7779 30.8643 49.2471 30.8643 48.5851L30.8664 48.5808Z" fill="white"/>
<path d="M42.4287 46.2512C42.4287 47.3236 42.2439 48.2649 41.8721 49.0772C41.5003 49.8875 40.9716 50.5129 40.2839 50.9513C39.5962 51.3897 38.801 51.6068 37.8983 51.6068C36.538 51.6068 35.4376 51.1189 34.6016 50.1454C33.7634 49.1718 33.3444 47.8566 33.3444 46.2039V45.0025C33.3444 43.9409 33.5335 42.9995 33.9096 42.1807C34.2857 41.3619 34.8187 40.7322 35.5064 40.2916C36.1941 39.8511 36.9871 39.6319 37.8833 39.6319C38.7795 39.6319 39.5704 39.8489 40.2559 40.2809C40.9415 40.7129 41.4702 41.3232 41.8441 42.1141C42.2181 42.905 42.4115 43.8184 42.4287 44.8607V46.2533V46.2512ZM41.4444 44.9875C41.4444 43.5841 41.1263 42.4837 40.4923 41.6886C39.8562 40.8934 38.988 40.4958 37.8833 40.4958C36.7787 40.4958 35.9362 40.8955 35.2936 41.6929C34.651 42.4902 34.3287 43.6056 34.3287 45.0348V46.2512C34.3287 47.633 34.6489 48.7291 35.2893 49.5372C35.9298 50.3452 36.8001 50.7493 37.8983 50.7493C38.9965 50.7493 39.8841 50.3495 40.5074 49.5522C41.1328 48.7549 41.4444 47.6438 41.4444 46.2189V44.9853V44.9875Z" fill="white"/>
<path d="M53.0002 47.8114C52.867 49.0386 52.4285 49.9777 51.6828 50.6289C50.937 51.2801 49.9463 51.6046 48.7084 51.6046C47.8445 51.6046 47.0794 51.3876 46.4153 50.9556C45.7512 50.5236 45.2376 49.9111 44.8744 49.1181C44.5112 48.3251 44.3264 47.4203 44.3221 46.3994V44.8865C44.3221 43.8506 44.5026 42.9329 44.8658 42.1334C45.229 41.334 45.7512 40.715 46.4303 40.2809C47.1116 39.8468 47.8939 39.6276 48.7793 39.6276C50.028 39.6276 51.0144 39.9628 51.7365 40.6355C52.4586 41.3082 52.8798 42.2387 52.998 43.4294H52.0052C51.7602 41.45 50.6834 40.4593 48.7793 40.4593C47.722 40.4593 46.8817 40.8547 46.2541 41.6456C45.6266 42.4365 45.3128 43.5282 45.3128 44.923V46.35C45.3128 47.6954 45.618 48.7699 46.2283 49.5694C46.8387 50.371 47.6661 50.7708 48.7063 50.7708C49.7464 50.7708 50.5115 50.5236 51.0359 50.0293C51.5581 49.535 51.8827 48.7957 52.0052 47.8071H52.998L53.0002 47.8114Z" fill="white"/>
<path d="M60.7542 36.406H16.3298C16.2739 36.406 16.2288 36.3609 16.2288 36.305C16.2288 36.2491 16.2739 36.204 16.3298 36.204H60.7521C60.808 36.204 60.8531 36.2491 60.8531 36.305C60.8531 36.3609 60.808 36.406 60.7521 36.406H60.7542Z" fill="white"/>
<path d="M23.6024 58.1938C23.5809 58.1487 23.5615 58.0713 23.5486 57.9574C23.3703 58.1422 23.1575 58.2346 22.9082 58.2346C22.6868 58.2346 22.5042 58.1723 22.3623 58.0477C22.2205 57.923 22.1496 57.764 22.1496 57.5706C22.1496 57.3363 22.2377 57.1558 22.4161 57.0247C22.5944 56.8957 22.8437 56.8313 23.1661 56.8313H23.54V56.655C23.54 56.5218 23.4992 56.4143 23.4197 56.3348C23.3402 56.2553 23.222 56.2145 23.0651 56.2145C22.9275 56.2145 22.8136 56.2489 22.7212 56.3176C22.6288 56.3864 22.5815 56.4702 22.5815 56.5691H22.1947C22.1947 56.4573 22.2355 56.3477 22.315 56.2446C22.3946 56.1392 22.502 56.0576 22.6396 55.9974C22.775 55.9372 22.9254 55.905 23.0887 55.905C23.3488 55.905 23.5508 55.9695 23.6969 56.0984C23.8431 56.2274 23.9204 56.4057 23.9247 56.6335V57.6673C23.9247 57.8736 23.9505 58.0369 24.0043 58.1594V58.1917H23.6002L23.6024 58.1938ZM22.9641 57.9015C23.0844 57.9015 23.1983 57.8693 23.3058 57.8091C23.4132 57.7468 23.4928 57.6651 23.54 57.5663V57.1042H23.2392C22.7685 57.1042 22.5321 57.2418 22.5321 57.5168C22.5321 57.6372 22.5729 57.7318 22.6525 57.7984C22.732 57.8671 22.8351 57.8994 22.9619 57.8994L22.9641 57.9015Z" fill="white"/>
<path d="M24.4255 55.3505C24.4255 55.2882 24.4448 55.2345 24.4835 55.1936C24.5222 55.1528 24.5781 55.1292 24.6533 55.1292C24.7285 55.1292 24.7844 55.1506 24.8231 55.1936C24.8618 55.2366 24.8811 55.2882 24.8811 55.3505C24.8811 55.4128 24.8618 55.4644 24.8231 55.5052C24.7844 55.5461 24.7285 55.5676 24.6533 55.5676C24.5781 55.5676 24.5222 55.5461 24.4835 55.5052C24.4448 55.4644 24.4255 55.4107 24.4255 55.3505ZM24.8403 58.1938H24.4556V55.9458H24.8403V58.1938Z" fill="white"/>
<path d="M26.2501 57.923C26.3877 57.923 26.5059 57.8822 26.609 57.7984C26.7122 57.7146 26.7681 57.6114 26.7788 57.4867H27.142C27.1356 57.6157 27.0904 57.7382 27.0088 57.8543C26.9271 57.9703 26.8175 58.0627 26.6821 58.1315C26.5467 58.2003 26.4006 58.2346 26.2501 58.2346C25.9449 58.2346 25.6999 58.1315 25.5194 57.9273C25.3389 57.7232 25.2486 57.4438 25.2486 57.0892V57.0247C25.2486 56.8055 25.2895 56.6121 25.369 56.4401C25.4485 56.2703 25.5645 56.1371 25.715 56.0425C25.8654 55.948 26.0438 55.9007 26.248 55.9007C26.4994 55.9007 26.71 55.9759 26.8755 56.1264C27.0431 56.2768 27.1313 56.4724 27.142 56.7152H26.7788C26.7681 56.5691 26.7122 56.4509 26.6133 56.3563C26.5145 56.2639 26.392 56.2166 26.2458 56.2166C26.0502 56.2166 25.8998 56.2875 25.7924 56.4272C25.6849 56.5669 25.6312 56.7711 25.6312 57.0376V57.1107C25.6312 57.3707 25.6849 57.5684 25.7902 57.7081C25.8977 57.8478 26.0502 57.9187 26.248 57.9187L26.2501 57.923Z" fill="white"/>
<path d="M29.3685 57.0956C29.3685 57.4373 29.2911 57.7124 29.1342 57.923C28.9773 58.1315 28.7667 58.2368 28.4981 58.2368C28.2294 58.2368 28.0102 58.1508 27.8533 57.9768V59.0599H27.4687V55.948H27.819L27.8383 56.1973C27.9952 56.0039 28.2123 55.9072 28.4895 55.9072C28.7667 55.9072 28.973 56.0082 29.1299 56.2123C29.2868 56.4165 29.3663 56.7002 29.3663 57.0612V57.0956H29.3685ZM28.9838 57.0526C28.9838 56.799 28.9301 56.5992 28.8226 56.453C28.7151 56.3069 28.5669 56.2338 28.3777 56.2338C28.1456 56.2338 27.9716 56.337 27.8533 56.5433V57.6179C27.9694 57.822 28.1435 57.9252 28.382 57.9252C28.5669 57.9252 28.713 57.8521 28.8205 57.706C28.9301 57.5598 28.9838 57.3428 28.9838 57.0548V57.0526Z" fill="white"/>
<path d="M31.1372 58.1938C31.1157 58.1487 31.0964 58.0713 31.0835 57.9574C30.9051 58.1422 30.6924 58.2346 30.4431 58.2346C30.2217 58.2346 30.039 58.1723 29.8972 58.0477C29.7553 57.923 29.6844 57.764 29.6844 57.5706C29.6844 57.3363 29.7725 57.1558 29.9509 57.0247C30.1293 56.8957 30.3786 56.8313 30.701 56.8313H31.0749V56.655C31.0749 56.5218 31.0341 56.4143 30.9545 56.3348C30.875 56.2553 30.7568 56.2145 30.5999 56.2145C30.4624 56.2145 30.3485 56.2489 30.2561 56.3176C30.1637 56.3864 30.1164 56.4702 30.1164 56.5691H29.7296C29.7296 56.4573 29.7704 56.3477 29.8499 56.2446C29.9294 56.1392 30.0369 56.0576 30.1744 55.9974C30.3098 55.9372 30.4603 55.905 30.6236 55.905C30.8836 55.905 31.0856 55.9695 31.2318 56.0984C31.3779 56.2274 31.4553 56.4057 31.4596 56.6335V57.6673C31.4596 57.8736 31.4854 58.0369 31.5391 58.1594V58.1917H31.1351L31.1372 58.1938ZM30.4989 57.9015C30.6193 57.9015 30.7332 57.8693 30.8406 57.8091C30.9481 57.7468 31.0276 57.6651 31.0749 57.5663V57.1042H30.774C30.3034 57.1042 30.067 57.2418 30.067 57.5168C30.067 57.6372 30.1078 57.7318 30.1873 57.7984C30.2668 57.8671 30.37 57.8994 30.4968 57.8994L30.4989 57.9015Z" fill="white"/>
<path d="M31.9646 57.9939C31.9646 57.9273 31.9839 57.8714 32.0248 57.8285C32.0656 57.7855 32.1236 57.7618 32.2032 57.7618C32.2827 57.7618 32.3428 57.7833 32.3837 57.8285C32.4245 57.8736 32.446 57.9273 32.446 57.9939C32.446 58.0606 32.4245 58.11 32.3837 58.153C32.3428 58.196 32.2827 58.2175 32.2032 58.2175C32.1236 58.2175 32.0656 58.196 32.0248 58.153C31.9839 58.11 31.9646 58.0563 31.9646 57.9939Z" fill="white"/>
<path d="M32.8672 57.0505C32.8672 56.8313 32.9102 56.6314 32.9962 56.4573C33.0822 56.2833 33.2025 56.1457 33.3572 56.0512C33.512 55.9566 33.6882 55.9072 33.8859 55.9072C34.1911 55.9072 34.4404 56.0125 34.6295 56.2252C34.8187 56.438 34.9132 56.7195 34.9132 57.0698V57.0978C34.9132 57.317 34.8724 57.5126 34.7886 57.6866C34.7047 57.8607 34.5844 57.9961 34.4297 58.0928C34.2728 58.1895 34.0944 58.239 33.8924 58.239C33.5872 58.239 33.3401 58.1337 33.1509 57.9209C32.9618 57.7081 32.8672 57.4287 32.8672 57.0806V57.0526V57.0505ZM33.2541 57.0956C33.2541 57.3449 33.3121 57.5448 33.4282 57.6952C33.5442 57.8457 33.699 57.9209 33.8924 57.9209C34.0858 57.9209 34.2427 57.8435 34.3566 57.6909C34.4705 57.5383 34.5285 57.3234 34.5285 57.0483C34.5285 56.8012 34.4705 56.6013 34.3523 56.4487C34.2362 56.2962 34.0794 56.2188 33.8859 56.2188C33.6925 56.2188 33.5442 56.294 33.426 56.4444C33.3078 56.5949 33.2519 56.8119 33.2519 57.0935L33.2541 57.0956Z" fill="white"/>
<path d="M36.3746 56.2918C36.3166 56.2832 36.2543 56.2768 36.1855 56.2768C35.9341 56.2768 35.7621 56.3842 35.6719 56.5992V58.1938H35.2872V55.9458H35.6611L35.6676 56.2059C35.7944 56.006 35.9727 55.905 36.2027 55.905C36.2779 55.905 36.3338 55.9136 36.3725 55.9351V56.2918H36.3746Z" fill="white"/>
<path d="M36.5315 57.0526C36.5315 56.7023 36.6132 56.4229 36.7743 56.2166C36.9355 56.0103 37.1504 55.9072 37.4191 55.9072C37.6877 55.9072 37.9069 56.0039 38.0617 56.1973L38.081 55.948H38.4313V58.1422C38.4313 58.4324 38.3454 58.6623 38.1734 58.83C38.0015 58.9976 37.7694 59.0814 37.4793 59.0814C37.3181 59.0814 37.159 59.047 37.0043 58.9783C36.8496 58.9095 36.7314 58.8149 36.6497 58.6946L36.8496 58.4646C37.015 58.6688 37.2149 58.7698 37.4535 58.7698C37.6404 58.7698 37.7866 58.7161 37.8897 58.6129C37.995 58.5076 38.0466 58.3593 38.0466 58.168V57.9746C37.8919 58.153 37.6834 58.2411 37.4169 58.2411C37.1504 58.2411 36.942 58.1358 36.7786 57.923C36.6153 57.7103 36.5336 57.4223 36.5336 57.0569L36.5315 57.0526ZM36.9183 57.0956C36.9183 57.3492 36.9699 57.5491 37.0752 57.6931C37.1784 57.8371 37.3245 57.9101 37.5115 57.9101C37.7543 57.9101 37.9327 57.8005 38.0445 57.5792V56.554C37.9263 56.3391 37.75 56.2317 37.5158 56.2317C37.3288 56.2317 37.1827 56.3048 37.0774 56.4509C36.9721 56.597 36.9205 56.8119 36.9205 57.0978L36.9183 57.0956Z" fill="white"/>
<path d="M38.9793 58.4539H38.6484L39.9121 55.17H40.2409L38.9793 58.4539Z" fill="white"/>
<path d="M41.857 57.5985C41.857 57.4953 41.8183 57.4137 41.7388 57.3557C41.6614 57.2976 41.5239 57.2482 41.3305 57.2074C41.1349 57.1665 40.9823 57.115 40.8663 57.0569C40.7524 56.9989 40.6686 56.9301 40.6127 56.8485C40.559 56.7689 40.531 56.6722 40.531 56.5626C40.531 56.3778 40.6084 56.2231 40.7653 56.0963C40.9222 55.9695 41.1199 55.905 41.3627 55.905C41.6185 55.905 41.8248 55.9716 41.9817 56.1027C42.1407 56.2338 42.2202 56.4036 42.2202 56.6078H41.8334C41.8334 56.5025 41.7882 56.4122 41.7001 56.3348C41.612 56.2575 41.4981 56.2209 41.3627 56.2209C41.2273 56.2209 41.1134 56.251 41.0339 56.3133C40.9544 56.3735 40.9157 56.453 40.9157 56.5519C40.9157 56.6443 40.9522 56.7152 41.0253 56.7625C41.0984 56.8098 41.2316 56.8549 41.4229 56.8979C41.6142 56.9409 41.7711 56.9925 41.8893 57.0526C42.0075 57.1128 42.0956 57.1837 42.1536 57.2675C42.2116 57.3514 42.2396 57.4524 42.2396 57.5749C42.2396 57.7747 42.16 57.9359 41.9989 58.0584C41.8377 58.1788 41.6292 58.2411 41.3735 58.2411C41.1929 58.2411 41.0339 58.2089 40.8964 58.1465C40.7588 58.0821 40.6492 57.9939 40.5718 57.88C40.4945 57.7661 40.4536 57.6415 40.4536 57.5082H40.8383C40.8448 57.6372 40.8964 57.7382 40.9931 57.8156C41.0898 57.8929 41.2166 57.9295 41.3735 57.9295C41.5196 57.9295 41.6357 57.8994 41.7238 57.8414C41.8119 57.7833 41.8549 57.7038 41.8549 57.605L41.857 57.5985Z" fill="white"/>
<path d="M42.534 57.0505C42.534 56.8313 42.577 56.6314 42.6629 56.4573C42.7489 56.2833 42.8693 56.1457 43.024 56.0512C43.1787 55.9566 43.355 55.9072 43.5527 55.9072C43.8579 55.9072 44.1072 56.0125 44.2963 56.2252C44.4854 56.438 44.58 56.7195 44.58 57.0698V57.0978C44.58 57.317 44.5391 57.5126 44.4553 57.6866C44.3715 57.8607 44.2511 57.9961 44.0964 58.0928C43.9395 58.1895 43.7611 58.239 43.5591 58.239C43.2539 58.239 43.0068 58.1337 42.8177 57.9209C42.6286 57.7081 42.534 57.4287 42.534 57.0806V57.0526V57.0505ZM42.9208 57.0956C42.9208 57.3449 42.9789 57.5448 43.0949 57.6952C43.211 57.8457 43.3657 57.9209 43.5591 57.9209C43.7525 57.9209 43.9094 57.8435 44.0233 57.6909C44.1372 57.5383 44.1953 57.3234 44.1953 57.0483C44.1953 56.8012 44.1372 56.6013 44.019 56.4487C43.903 56.2962 43.7461 56.2188 43.5527 56.2188C43.3593 56.2188 43.211 56.294 43.0928 56.4444C42.9746 56.5949 42.9187 56.8119 42.9187 57.0935L42.9208 57.0956Z" fill="white"/>
<path d="M45.8565 57.923C45.9941 57.923 46.1123 57.8822 46.2154 57.7984C46.3186 57.7146 46.3745 57.6114 46.3852 57.4867H46.7484C46.742 57.6157 46.6968 57.7382 46.6152 57.8543C46.5335 57.9703 46.4239 58.0627 46.2885 58.1315C46.1531 58.2003 46.007 58.2346 45.8565 58.2346C45.5514 58.2346 45.3064 58.1315 45.1258 57.9273C44.9453 57.7232 44.855 57.4438 44.855 57.0892V57.0247C44.855 56.8055 44.8959 56.6121 44.9754 56.4401C45.0549 56.2703 45.171 56.1371 45.3214 56.0425C45.4718 55.948 45.6502 55.9007 45.8544 55.9007C46.1058 55.9007 46.3164 55.9759 46.4819 56.1264C46.6496 56.2768 46.7377 56.4724 46.7484 56.7152H46.3852C46.3745 56.5691 46.3186 56.4509 46.2197 56.3563C46.1209 56.2639 45.9984 56.2166 45.8522 56.2166C45.6567 56.2166 45.5062 56.2875 45.3988 56.4272C45.2913 56.5669 45.2376 56.7711 45.2376 57.0376V57.1107C45.2376 57.3707 45.2913 57.5684 45.3966 57.7081C45.5041 57.8478 45.6567 57.9187 45.8544 57.9187L45.8565 57.923Z" fill="white"/>
<path d="M48.659 57.1794H49.078V57.4932H48.659V58.196H48.2721V57.4932H46.8945V57.2675L48.2485 55.1721H48.6568V57.1816L48.659 57.1794ZM47.3308 57.1794H48.2721V55.6965L48.227 55.7803L47.3308 57.1794Z" fill="white"/>
<path d="M50.6663 57.5985C50.6663 57.4953 50.6276 57.4137 50.5481 57.3557C50.4707 57.2976 50.3331 57.2482 50.1397 57.2074C49.9463 57.1665 49.7916 57.115 49.6755 57.0569C49.5616 56.9989 49.4778 56.9301 49.4219 56.8485C49.3682 56.7689 49.3402 56.6722 49.3402 56.5626C49.3402 56.3778 49.4176 56.2231 49.5745 56.0963C49.7314 55.9695 49.9291 55.905 50.172 55.905C50.4277 55.905 50.634 55.9716 50.7909 56.1027C50.9499 56.2338 51.0295 56.4036 51.0295 56.6078H50.6426C50.6426 56.5025 50.5975 56.4122 50.5094 56.3348C50.4191 56.2596 50.3073 56.2209 50.172 56.2209C50.0366 56.2209 49.9227 56.251 49.8431 56.3133C49.7636 56.3735 49.7249 56.453 49.7249 56.5519C49.7249 56.6443 49.7615 56.7152 49.8345 56.7625C49.9076 56.8098 50.0409 56.8549 50.2321 56.8979C50.4234 56.9409 50.5803 56.9925 50.6985 57.0526C50.8167 57.1128 50.9048 57.1837 50.9628 57.2675C51.0209 57.3514 51.0488 57.4524 51.0488 57.5749C51.0488 57.7747 50.9693 57.9359 50.8081 58.0584C50.6469 58.1788 50.4384 58.2411 50.1827 58.2411C50.0022 58.2411 49.8431 58.2089 49.7056 58.1465C49.5681 58.0821 49.4584 57.9939 49.3811 57.88C49.3037 57.7661 49.2629 57.6415 49.2629 57.5082H49.6476C49.654 57.6372 49.7056 57.7382 49.8023 57.8156C49.899 57.8908 50.0258 57.9295 50.1827 57.9295C50.3288 57.9295 50.4449 57.8994 50.533 57.8414C50.6211 57.7833 50.6641 57.7038 50.6641 57.605L50.6663 57.5985Z" fill="white"/>
<path d="M51.3432 57.0505C51.3432 56.8313 51.3862 56.6314 51.4722 56.4573C51.5581 56.2811 51.6785 56.1457 51.8332 56.0512C51.988 55.9566 52.1642 55.9072 52.3619 55.9072C52.6671 55.9072 52.9164 56.0125 53.1055 56.2252C53.2946 56.438 53.3892 56.7195 53.3892 57.0698V57.0978C53.3892 57.317 53.3484 57.5126 53.2645 57.6866C53.1807 57.8607 53.0604 57.9961 52.9056 58.0928C52.7488 58.1895 52.5704 58.239 52.3684 58.239C52.0632 58.239 51.816 58.1337 51.6269 57.9209C51.4378 57.7081 51.3432 57.4287 51.3432 57.0806V57.0526V57.0505ZM51.7301 57.0956C51.7301 57.3449 51.7881 57.5448 51.9042 57.6952C52.0202 57.8457 52.1749 57.9209 52.3684 57.9209C52.5618 57.9209 52.7187 57.8435 52.8326 57.6909C52.9486 57.5383 53.0045 57.3234 53.0045 57.0483C53.0045 56.8012 52.9465 56.6013 52.8283 56.4487C52.7122 56.2962 52.5553 56.2188 52.3619 56.2188C52.1685 56.2188 52.0202 56.294 51.902 56.4444C51.7838 56.5949 51.7279 56.8119 51.7279 57.0935L51.7301 57.0956Z" fill="white"/>
</g>
<defs>
<linearGradient id="paint0_linear_530_17396" x1="75.2522" y1="37.4999" x2="0.252197" y2="37.4999" gradientUnits="userSpaceOnUse">
<stop stop-color="#2161AD"/>
<stop offset="0.18" stop-color="#1F69B3"/>
<stop offset="0.47" stop-color="#1C82C4"/>
<stop offset="0.84" stop-color="#16A9E1"/>
<stop offset="1" stop-color="#14BDEF"/>
</linearGradient>
<linearGradient id="paint1_linear_530_17396" x1="8.65311" y1="-6.32459e-05" x2="66.8513" y2="37.4999" gradientUnits="userSpaceOnUse">
<stop stop-color="#2161AD"/>
<stop offset="0.18" stop-color="#1F69B3"/>
<stop offset="0.47" stop-color="#1C82C4"/>
<stop offset="0.84" stop-color="#16A9E1"/>
<stop offset="1" stop-color="#14BDEF"/>
</linearGradient>
<clipPath id="clip0_530_17396">
<rect width="75" height="75" fill="white" transform="translate(0.252197 -6.10352e-05)"/>
</clipPath>
</defs>
</svg>
