<svg width="57" height="75" viewBox="0 0 57 75" fill="none" xmlns="http://www.w3.org/2000/svg">
<rect x="0.140869" y="-6.10352e-05" width="56.8591" height="74.9982" rx="8.33314" fill="#08151B"/>
<path d="M0.140869 8.33308C0.140869 3.73082 3.87174 -6.10352e-05 8.47401 -6.10352e-05H48.6669C53.2691 -6.10352e-05 57 3.73081 57 8.33308V46.743H0.140869V8.33308Z" fill="#2050E0"/>
<path d="M22.0992 54.7456H20.4888C20.4674 54.5803 20.4234 54.4311 20.3568 54.298C20.2902 54.1648 20.2022 54.051 20.0927 53.9566C19.9832 53.8621 19.8533 53.7902 19.703 53.7408C19.5548 53.6892 19.3906 53.6635 19.2102 53.6635C18.8903 53.6635 18.6144 53.7419 18.3825 53.8986C18.1528 54.0553 17.9756 54.2819 17.8511 54.5782C17.7287 54.8745 17.6675 55.233 17.6675 55.6539C17.6675 56.0919 17.7298 56.4591 17.8543 56.7554C17.981 57.0495 18.1581 57.2718 18.3857 57.4221C18.6155 57.5702 18.8871 57.6443 19.2006 57.6443C19.3766 57.6443 19.5366 57.6217 19.6804 57.5767C19.8265 57.5316 19.9542 57.4661 20.0637 57.3802C20.1754 57.2922 20.2666 57.1859 20.3375 57.0613C20.4105 56.9347 20.4609 56.7919 20.4888 56.633L22.0992 56.6426C22.0713 56.9347 21.9865 57.2224 21.8448 57.5058C21.7052 57.7892 21.513 58.048 21.2683 58.282C21.0235 58.5139 20.725 58.6985 20.3729 58.836C20.0229 58.9734 19.6214 59.0421 19.1684 59.0421C18.5714 59.0421 18.0368 58.9111 17.5644 58.6492C17.0942 58.3851 16.7227 58.0007 16.4501 57.4961C16.1774 56.9916 16.041 56.3775 16.041 55.6539C16.041 54.9281 16.1795 54.313 16.4565 53.8084C16.7335 53.3038 17.1082 52.9206 17.5805 52.6586C18.0529 52.3967 18.5822 52.2657 19.1684 52.2657C19.5677 52.2657 19.937 52.3215 20.2763 52.4332C20.6155 52.5427 20.914 52.7037 21.1716 52.9163C21.4293 53.1267 21.6386 53.3854 21.7997 53.6925C21.9607 53.9995 22.0606 54.3506 22.0992 54.7456Z" fill="white"/>
<path d="M28.9988 54.7456H27.3884C27.367 54.5803 27.323 54.4311 27.2564 54.298C27.1898 54.1648 27.1018 54.051 26.9923 53.9566C26.8828 53.8621 26.7529 53.7902 26.6026 53.7408C26.4544 53.6892 26.2902 53.6635 26.1098 53.6635C25.7899 53.6635 25.514 53.7419 25.2821 53.8986C25.0523 54.0553 24.8752 54.2819 24.7507 54.5782C24.6283 54.8745 24.5671 55.233 24.5671 55.6539C24.5671 56.0919 24.6294 56.4591 24.7539 56.7554C24.8806 57.0495 25.0577 57.2718 25.2853 57.4221C25.5151 57.5702 25.7867 57.6443 26.1002 57.6443C26.2762 57.6443 26.4362 57.6217 26.58 57.5767C26.726 57.5316 26.8538 57.4661 26.9633 57.3802C27.075 57.2922 27.1662 57.1859 27.2371 57.0613C27.3101 56.9347 27.3605 56.7919 27.3884 56.633L28.9988 56.6426C28.9709 56.9347 28.8861 57.2224 28.7444 57.5058C28.6048 57.7892 28.4126 58.048 28.1679 58.282C27.9231 58.5139 27.6246 58.6985 27.2725 58.836C26.9225 58.9734 26.521 59.0421 26.0679 59.0421C25.471 59.0421 24.9364 58.9111 24.464 58.6492C23.9938 58.3851 23.6223 58.0007 23.3497 57.4961C23.077 56.9916 22.9406 56.3775 22.9406 55.6539C22.9406 54.9281 23.0791 54.313 23.3561 53.8084C23.6331 53.3038 24.0078 52.9206 24.4801 52.6586C24.9525 52.3967 25.4818 52.2657 26.0679 52.2657C26.4673 52.2657 26.8366 52.3215 27.1759 52.4332C27.5151 52.5427 27.8136 52.7037 28.0712 52.9163C28.3289 53.1267 28.5382 53.3854 28.6993 53.6925C28.8603 53.9995 28.9602 54.3506 28.9988 54.7456Z" fill="white"/>
<path d="M29.9111 58.9519V52.3559H32.6358C33.1296 52.3559 33.5559 52.4525 33.9144 52.6457C34.2751 52.8368 34.5532 53.1041 34.7486 53.4477C34.944 53.7891 35.0417 54.1863 35.0417 54.6394C35.0417 55.0946 34.9418 55.4928 34.7422 55.8342C34.5446 56.1735 34.2623 56.4365 33.8951 56.6233C33.5279 56.8101 33.0921 56.9035 32.5875 56.9035H30.9063V55.6474H32.2912C32.5317 55.6474 32.7324 55.6056 32.8935 55.5218C33.0566 55.4381 33.1801 55.3211 33.2638 55.1708C33.3476 55.0183 33.3894 54.8412 33.3894 54.6394C33.3894 54.4354 33.3476 54.2593 33.2638 54.1112C33.1801 53.9609 33.0566 53.8449 32.8935 53.7633C32.7303 53.6817 32.5295 53.6409 32.2912 53.6409H31.5053V58.9519H29.9111Z" fill="white"/>
<path d="M36.4572 58.9519H34.7438L36.9693 52.3559H39.0917L41.3173 58.9519H39.6038L38.0547 54.0178H38.0031L36.4572 58.9519ZM36.2285 56.356H39.81V57.567H36.2285V56.356Z" fill="white"/>
<path d="M9.659 65.0815C9.63853 64.9434 9.59249 64.818 9.52086 64.7055C9.44923 64.5878 9.3597 64.4855 9.25226 64.3985C9.14482 64.3115 9.02203 64.245 8.8839 64.199C8.75088 64.1478 8.61018 64.1222 8.46182 64.1222C8.19066 64.1222 7.96043 64.176 7.77113 64.2834C7.58184 64.3857 7.42835 64.5264 7.31068 64.7055C7.19301 64.8794 7.10603 65.079 7.04976 65.3041C6.99859 65.5292 6.97301 65.762 6.97301 66.0024C6.97301 66.2327 6.99859 66.4578 7.04976 66.6778C7.10603 66.8926 7.19301 67.0871 7.31068 67.261C7.42835 67.435 7.58184 67.5757 7.77113 67.6831C7.96043 67.7854 8.19066 67.8366 8.46182 67.8366C8.83018 67.8366 9.11668 67.724 9.32133 67.4989C9.53109 67.2738 9.659 66.9771 9.70504 66.6087H10.8715C10.8408 66.9515 10.7615 67.261 10.6336 67.5373C10.5057 67.8136 10.3369 68.0489 10.1271 68.2433C9.91736 68.4377 9.67179 68.5861 9.3904 68.6884C9.10901 68.7907 8.79948 68.8419 8.46182 68.8419C8.04229 68.8419 7.66369 68.7703 7.32603 68.627C6.99348 68.4787 6.71209 68.2766 6.48186 68.0208C6.25163 67.765 6.07513 67.4657 5.95234 67.1229C5.82955 66.775 5.76816 66.4015 5.76816 66.0024C5.76816 65.5931 5.82955 65.2145 5.95234 64.8666C6.07513 64.5136 6.25163 64.2067 6.48186 63.9457C6.71209 63.6848 6.99348 63.4802 7.32603 63.3318C7.66369 63.1834 8.04229 63.1092 8.46182 63.1092C8.76367 63.1092 9.04762 63.1527 9.31366 63.2397C9.58481 63.3267 9.82527 63.4546 10.035 63.6234C10.2499 63.7871 10.4264 63.9918 10.5646 64.2374C10.7027 64.4829 10.7897 64.7643 10.8255 65.0815H9.659Z" fill="white"/>
<path d="M12.6612 66.0024C12.6612 66.2327 12.6868 66.4578 12.738 66.6778C12.7943 66.8926 12.8812 67.0871 12.9989 67.261C13.1166 67.435 13.2701 67.5757 13.4594 67.6831C13.6487 67.7854 13.8789 67.8366 14.15 67.8366C14.4212 67.8366 14.6514 67.7854 14.8407 67.6831C15.03 67.5757 15.1835 67.435 15.3012 67.261C15.4189 67.0871 15.5033 66.8926 15.5544 66.6778C15.6107 66.4578 15.6388 66.2327 15.6388 66.0024C15.6388 65.762 15.6107 65.5292 15.5544 65.3041C15.5033 65.079 15.4189 64.8794 15.3012 64.7055C15.1835 64.5264 15.03 64.3857 14.8407 64.2834C14.6514 64.176 14.4212 64.1222 14.15 64.1222C13.8789 64.1222 13.6487 64.176 13.4594 64.2834C13.2701 64.3857 13.1166 64.5264 12.9989 64.7055C12.8812 64.8794 12.7943 65.079 12.738 65.3041C12.6868 65.5292 12.6612 65.762 12.6612 66.0024ZM11.4564 66.0024C11.4564 65.5931 11.5178 65.2145 11.6406 64.8666C11.7634 64.5136 11.9399 64.2067 12.1701 63.9457C12.4003 63.6848 12.6817 63.4802 13.0143 63.3318C13.3519 63.1834 13.7305 63.1092 14.15 63.1092C14.5747 63.1092 14.9533 63.1834 15.2858 63.3318C15.6184 63.4802 15.8998 63.6848 16.13 63.9457C16.3602 64.2067 16.5367 64.5136 16.6595 64.8666C16.7823 65.2145 16.8437 65.5931 16.8437 66.0024C16.8437 66.4015 16.7823 66.775 16.6595 67.1229C16.5367 67.4657 16.3602 67.765 16.13 68.0208C15.8998 68.2766 15.6184 68.4787 15.2858 68.627C14.9533 68.7703 14.5747 68.8419 14.15 68.8419C13.7305 68.8419 13.3519 68.7703 13.0143 68.627C12.6817 68.4787 12.4003 68.2766 12.1701 68.0208C11.9399 67.765 11.7634 67.4657 11.6406 67.1229C11.5178 66.775 11.4564 66.4015 11.4564 66.0024Z" fill="white"/>
<path d="M17.6673 63.2397H19.3633L20.6449 67.0078H20.6603L21.8728 63.2397H23.5688V68.7191H22.4407V64.836H22.4253L21.0823 68.7191H20.1538L18.8108 64.8743H18.7954V68.7191H17.6673V63.2397Z" fill="white"/>
<path d="M25.8344 65.8183H26.7707C26.9088 65.8183 27.0418 65.808 27.1697 65.7876C27.2976 65.7671 27.4102 65.7287 27.5074 65.6724C27.6046 65.611 27.6814 65.5266 27.7376 65.4192C27.799 65.3118 27.8297 65.1711 27.8297 64.9971C27.8297 64.8232 27.799 64.6825 27.7376 64.575C27.6814 64.4676 27.6046 64.3857 27.5074 64.3295C27.4102 64.2681 27.2976 64.2271 27.1697 64.2067C27.0418 64.1862 26.9088 64.176 26.7707 64.176H25.8344V65.8183ZM24.6296 63.2397H27.1007C27.4435 63.2397 27.7351 63.2909 27.9755 63.3932C28.216 63.4904 28.4104 63.6209 28.5588 63.7846C28.7123 63.9483 28.8223 64.135 28.8888 64.3448C28.9604 64.5546 28.9962 64.772 28.9962 64.9971C28.9962 65.2171 28.9604 65.4345 28.8888 65.6494C28.8223 65.8592 28.7123 66.0459 28.5588 66.2096C28.4104 66.3734 28.216 66.5064 27.9755 66.6087C27.7351 66.7059 27.4435 66.7545 27.1007 66.7545H25.8344V68.7191H24.6296V63.2397Z" fill="white"/>
<path d="M29.7482 63.2397H30.9531V67.7061H33.6237V68.7191H29.7482V63.2397Z" fill="white"/>
<path d="M34.2973 63.2397H35.5022V68.7191H34.2973V63.2397Z" fill="white"/>
<path d="M37.942 66.601H39.3617L38.671 64.5904H38.6557L37.942 66.601ZM38.0571 63.2397H39.2926L41.3417 68.7191H40.0908L39.6764 67.4989H37.6273L37.1976 68.7191H35.985L38.0571 63.2397Z" fill="white"/>
<path d="M41.8142 63.2397H43.0113L45.2983 66.9157H45.3136V63.2397H46.4417V68.7191H45.2369L42.9576 65.0508H42.9423V68.7191H41.8142V63.2397Z" fill="white"/>
<path d="M48.7149 64.2527H47.0726V63.2397H51.5621V64.2527H49.9198V68.7191H48.7149V64.2527Z" fill="white"/>
<path d="M16.5357 8.72089H26.6518V14.8254L26.3029 17.0928H24.3844V28.0809H35.8957L41.3026 33.3133L41.1282 39.069L33.4539 40.1155V37.8481L27.8727 34.3598H24.3844V31.0459L20.8961 26.5112V25.4647L18.8031 22.3252V21.1043L16.5357 18.8369V15.3486L15.4892 14.3021L16.5357 10.8139V8.72089Z" fill="#C0C9F1"/>
<path d="M27.6982 35.4063H24.3844V36.4527H27.6982V35.4063Z" fill="#C0C9F1"/>
<path d="M28.9191 37.6736V36.4527H29.9656V37.6736H28.9191Z" fill="#C0C9F1"/>
<path d="M28.9191 38.7201V37.6736H27.6982V38.7201H28.9191Z" fill="#C0C9F1"/>
<path fill-rule="evenodd" clip-rule="evenodd" d="M35.874 18.1391H38.1631V26.511H25.9541V18.1391H28.2433V15.6157C28.2433 13.6273 30.1586 12.0338 32.4325 12.2245C34.4165 12.3947 35.874 13.9814 35.874 15.7587V18.1391ZM29.7694 15.6157V18.1391H34.3478V15.6157C34.3478 14.4853 33.3253 13.5728 32.0586 13.5728C30.792 13.5728 29.7694 14.4853 29.7694 15.6157ZM34.5246 20.7162C34.5203 20.5736 34.46 20.438 34.3558 20.3395C34.2515 20.2409 34.1121 20.1878 33.9684 20.1925C33.8247 20.1972 33.6893 20.2592 33.5918 20.3638L31.218 22.9079L30.3474 21.6774L30.3437 21.6725C30.2588 21.5611 30.1338 21.4868 29.9949 21.4661C29.8559 21.4453 29.7147 21.4798 29.601 21.5614C29.4874 21.643 29.4101 21.7653 29.3847 21.9023C29.3592 22.0393 29.3875 22.1812 29.4642 22.2981L29.4675 22.3032L30.7203 24.074C30.7664 24.1392 30.8265 24.1934 30.8964 24.2326C30.9662 24.2719 31.0439 24.295 31.1239 24.3004C31.2038 24.3057 31.2839 24.2931 31.3583 24.2637C31.4326 24.2342 31.4995 24.1884 31.554 24.1301L34.3793 21.102C34.4768 20.9975 34.5289 20.8588 34.5246 20.7162Z" fill="white"/>
</svg>
