<svg width="58" height="75" viewBox="0 0 58 75" fill="none" xmlns="http://www.w3.org/2000/svg">
<rect x="0.888672" y="-6.10352e-05" width="56.8591" height="74.9982" rx="8.33314" fill="#08151B"/>
<path d="M0.888672 8.33308C0.888672 3.73082 4.61954 -6.10352e-05 9.22181 -6.10352e-05H49.4147C54.0169 -6.10352e-05 57.7478 3.73081 57.7478 8.33308V46.743H0.888672V8.33308Z" fill="#2050E0"/>
<path d="M21.2221 54.5105C21.1856 54.3753 21.1319 54.2561 21.061 54.153C20.9902 54.0478 20.9032 53.9587 20.8001 53.8857C20.6971 53.8127 20.579 53.758 20.4459 53.7215C20.3127 53.6828 20.1667 53.6635 20.0079 53.6635C19.6879 53.6635 19.4109 53.7408 19.1769 53.8954C18.945 54.05 18.7657 54.2754 18.639 54.5717C18.5124 54.8659 18.449 55.2234 18.449 55.6442C18.449 56.0672 18.5102 56.4279 18.6326 56.7264C18.755 57.0248 18.9321 57.2524 19.164 57.4092C19.3959 57.5659 19.6772 57.6443 20.0079 57.6443C20.2999 57.6443 20.5468 57.5971 20.7486 57.5026C20.9526 57.406 21.1072 57.2696 21.2124 57.0935C21.3176 56.9175 21.3702 56.7103 21.3702 56.4719L21.6665 56.5074H20.0626V55.3447H22.9065V56.2175C22.9065 56.808 22.7809 57.3136 22.5297 57.7345C22.2806 58.1553 21.9371 58.4785 21.499 58.7039C21.0632 58.9294 20.5618 59.0421 19.995 59.0421C19.3659 59.0421 18.813 58.9057 18.3363 58.6331C17.8596 58.3604 17.4882 57.9717 17.2219 57.4672C16.9557 56.9604 16.8226 56.3592 16.8226 55.6635C16.8226 55.1225 16.9031 54.6426 17.0641 54.2239C17.2251 53.803 17.4495 53.4466 17.7372 53.1546C18.0271 52.8626 18.3621 52.6414 18.7421 52.4911C19.1243 52.3408 19.5355 52.2657 19.9756 52.2657C20.3578 52.2657 20.7132 52.3204 21.0417 52.4299C21.3724 52.5394 21.6644 52.694 21.9177 52.8937C22.1733 53.0934 22.3805 53.3307 22.5393 53.6055C22.6982 53.8803 22.797 54.182 22.8356 54.5105H21.2221Z" fill="white"/>
<path d="M26.2842 58.9519H23.8461V52.3559H26.281C26.9531 52.3559 27.5317 52.4879 28.017 52.752C28.5044 53.014 28.8801 53.3919 29.1442 53.8857C29.4083 54.3774 29.5404 54.9657 29.5404 55.6507C29.5404 56.3378 29.4083 56.9282 29.1442 57.4221C28.8823 57.9159 28.5076 58.2949 28.0202 58.559C27.5328 58.8209 26.9541 58.9519 26.2842 58.9519ZM25.4404 57.5928H26.223C26.5923 57.5928 26.9048 57.5305 27.1603 57.406C27.4179 57.2793 27.6122 57.0742 27.7432 56.7908C27.8763 56.5052 27.9429 56.1252 27.9429 55.6507C27.9429 55.1761 27.8763 54.7982 27.7432 54.517C27.6101 54.2335 27.4136 54.0296 27.1538 53.905C26.8962 53.7784 26.5784 53.715 26.2005 53.715H25.4404V57.5928Z" fill="white"/>
<path d="M30.4712 58.9519V52.3559H33.1959C33.6897 52.3559 34.116 52.4525 34.4745 52.6457C34.8353 52.8368 35.1133 53.1041 35.3087 53.4477C35.5041 53.7891 35.6018 54.1863 35.6018 54.6394C35.6018 55.0946 35.5019 55.4928 35.3023 55.8342C35.1047 56.1735 34.8224 56.4365 34.4552 56.6233C34.088 56.8101 33.6522 56.9035 33.1476 56.9035H31.4664V55.6474H32.8513C33.0918 55.6474 33.2925 55.6056 33.4536 55.5218C33.6167 55.4381 33.7402 55.3211 33.8239 55.1708C33.9077 55.0183 33.9496 54.8412 33.9496 54.6394C33.9496 54.4354 33.9077 54.2593 33.8239 54.1112C33.7402 53.9609 33.6167 53.8449 33.4536 53.7633C33.2904 53.6817 33.0896 53.6409 32.8513 53.6409H32.0654V58.9519H30.4712Z" fill="white"/>
<path d="M36.3876 58.9519V52.3559H39.1124C39.6062 52.3559 40.0324 52.445 40.391 52.6232C40.7517 52.7993 41.0298 53.0526 41.2252 53.3833C41.4206 53.7118 41.5182 54.1015 41.5182 54.5524C41.5182 55.0097 41.4184 55.3984 41.2187 55.7183C41.019 56.0361 40.7356 56.2787 40.3685 56.4462C40.0013 56.6115 39.5665 56.6942 39.0641 56.6942H37.341V55.4381H38.7677C39.0082 55.4381 39.209 55.407 39.37 55.3447C39.5332 55.2803 39.6567 55.1837 39.7404 55.0548C39.8241 54.9239 39.866 54.7564 39.866 54.5524C39.866 54.3484 39.8241 54.1799 39.7404 54.0467C39.6567 53.9115 39.5332 53.8106 39.37 53.744C39.2068 53.6753 39.0061 53.6409 38.7677 53.6409H37.9819V58.9519H36.3876ZM40.1011 55.9373L41.7437 58.9519H40.0045L38.3941 55.9373H40.1011Z" fill="white"/>
<path d="M10.4068 65.0815C10.3863 64.9434 10.3403 64.818 10.2687 64.7055C10.197 64.5878 10.1075 64.4855 10.0001 64.3985C9.89262 64.3115 9.76984 64.245 9.6317 64.199C9.49868 64.1478 9.35799 64.1222 9.20962 64.1222C8.93846 64.1222 8.70823 64.176 8.51894 64.2834C8.32964 64.3857 8.17615 64.5264 8.05848 64.7055C7.94081 64.8794 7.85384 65.079 7.79756 65.3041C7.7464 65.5292 7.72082 65.762 7.72082 66.0024C7.72082 66.2327 7.7464 66.4578 7.79756 66.6778C7.85384 66.8926 7.94081 67.0871 8.05848 67.261C8.17615 67.435 8.32964 67.5757 8.51894 67.6831C8.70823 67.7854 8.93846 67.8366 9.20962 67.8366C9.57798 67.8366 9.86449 67.724 10.0691 67.4989C10.2789 67.2738 10.4068 66.9771 10.4528 66.6087H11.6193C11.5886 66.9515 11.5093 67.261 11.3814 67.5373C11.2535 67.8136 11.0847 68.0489 10.8749 68.2433C10.6652 68.4377 10.4196 68.5861 10.1382 68.6884C9.85681 68.7907 9.54728 68.8419 9.20962 68.8419C8.79009 68.8419 8.4115 68.7703 8.07383 68.627C7.74128 68.4787 7.45989 68.2766 7.22966 68.0208C6.99944 67.765 6.82293 67.4657 6.70014 67.1229C6.57735 66.775 6.51596 66.4015 6.51596 66.0024C6.51596 65.5931 6.57735 65.2145 6.70014 64.8666C6.82293 64.5136 6.99944 64.2067 7.22966 63.9457C7.45989 63.6848 7.74128 63.4802 8.07383 63.3318C8.4115 63.1834 8.79009 63.1092 9.20962 63.1092C9.51147 63.1092 9.79542 63.1527 10.0615 63.2397C10.3326 63.3267 10.5731 63.4546 10.7828 63.6234C10.9977 63.7871 11.1742 63.9918 11.3124 64.2374C11.4505 64.4829 11.5375 64.7643 11.5733 65.0815H10.4068Z" fill="white"/>
<path d="M13.409 66.0024C13.409 66.2327 13.4346 66.4578 13.4858 66.6778C13.5421 66.8926 13.629 67.0871 13.7467 67.261C13.8644 67.435 14.0179 67.5757 14.2072 67.6831C14.3965 67.7854 14.6267 67.8366 14.8978 67.8366C15.169 67.8366 15.3992 67.7854 15.5885 67.6831C15.7778 67.5757 15.9313 67.435 16.049 67.261C16.1667 67.0871 16.2511 66.8926 16.3022 66.6778C16.3585 66.4578 16.3866 66.2327 16.3866 66.0024C16.3866 65.762 16.3585 65.5292 16.3022 65.3041C16.2511 65.079 16.1667 64.8794 16.049 64.7055C15.9313 64.5264 15.7778 64.3857 15.5885 64.2834C15.3992 64.176 15.169 64.1222 14.8978 64.1222C14.6267 64.1222 14.3965 64.176 14.2072 64.2834C14.0179 64.3857 13.8644 64.5264 13.7467 64.7055C13.629 64.8794 13.5421 65.079 13.4858 65.3041C13.4346 65.5292 13.409 65.762 13.409 66.0024ZM12.2042 66.0024C12.2042 65.5931 12.2656 65.2145 12.3884 64.8666C12.5112 64.5136 12.6877 64.2067 12.9179 63.9457C13.1481 63.6848 13.4295 63.4802 13.7621 63.3318C14.0997 63.1834 14.4783 63.1092 14.8978 63.1092C15.3225 63.1092 15.7011 63.1834 16.0336 63.3318C16.3662 63.4802 16.6476 63.6848 16.8778 63.9457C17.108 64.2067 17.2845 64.5136 17.4073 64.8666C17.5301 65.2145 17.5915 65.5931 17.5915 66.0024C17.5915 66.4015 17.5301 66.775 17.4073 67.1229C17.2845 67.4657 17.108 67.765 16.8778 68.0208C16.6476 68.2766 16.3662 68.4787 16.0336 68.627C15.7011 68.7703 15.3225 68.8419 14.8978 68.8419C14.4783 68.8419 14.0997 68.7703 13.7621 68.627C13.4295 68.4787 13.1481 68.2766 12.9179 68.0208C12.6877 67.765 12.5112 67.4657 12.3884 67.1229C12.2656 66.775 12.2042 66.4015 12.2042 66.0024Z" fill="white"/>
<path d="M18.4151 63.2397H20.1111L21.3927 67.0078H21.4081L22.6206 63.2397H24.3166V68.7191H23.1885V64.836H23.1731L21.8301 68.7191H20.9016L19.5586 64.8743H19.5432V68.7191H18.4151V63.2397Z" fill="white"/>
<path d="M26.5822 65.8183H27.5185C27.6566 65.8183 27.7896 65.808 27.9175 65.7876C28.0455 65.7671 28.158 65.7287 28.2552 65.6724C28.3524 65.611 28.4292 65.5266 28.4854 65.4192C28.5468 65.3118 28.5775 65.1711 28.5775 64.9971C28.5775 64.8232 28.5468 64.6825 28.4854 64.575C28.4292 64.4676 28.3524 64.3857 28.2552 64.3295C28.158 64.2681 28.0455 64.2271 27.9175 64.2067C27.7896 64.1862 27.6566 64.176 27.5185 64.176H26.5822V65.8183ZM25.3774 63.2397H27.8485C28.1913 63.2397 28.4829 63.2909 28.7233 63.3932C28.9638 63.4904 29.1582 63.6209 29.3066 63.7846C29.4601 63.9483 29.5701 64.135 29.6366 64.3448C29.7082 64.5546 29.744 64.772 29.744 64.9971C29.744 65.2171 29.7082 65.4345 29.6366 65.6494C29.5701 65.8592 29.4601 66.0459 29.3066 66.2096C29.1582 66.3734 28.9638 66.5064 28.7233 66.6087C28.4829 66.7059 28.1913 66.7545 27.8485 66.7545H26.5822V68.7191H25.3774V63.2397Z" fill="white"/>
<path d="M30.496 63.2397H31.7009V67.7061H34.3715V68.7191H30.496V63.2397Z" fill="white"/>
<path d="M35.0451 63.2397H36.25V68.7191H35.0451V63.2397Z" fill="white"/>
<path d="M38.6898 66.601H40.1095L39.4188 64.5904H39.4035L38.6898 66.601ZM38.8049 63.2397H40.0404L42.0895 68.7191H40.8386L40.4242 67.4989H38.3751L37.9454 68.7191H36.7328L38.8049 63.2397Z" fill="white"/>
<path d="M42.562 63.2397H43.7592L46.0461 66.9157H46.0614V63.2397H47.1895V68.7191H45.9847L43.7054 65.0508H43.6901V68.7191H42.562V63.2397Z" fill="white"/>
<path d="M49.4627 64.2527H47.8204V63.2397H52.3099V64.2527H50.6676V68.7191H49.4627V64.2527Z" fill="white"/>
<path d="M28.795 6.27866L29.3486 8.07053H31.1405L29.6904 9.1787L30.2469 10.9706L28.795 9.86241L27.345 10.9706L27.8986 9.1787L26.4485 8.07053H28.2404L28.795 6.27866Z" fill="#FFD833"/>
<path d="M28.795 35.7722L29.3486 37.5651H31.1405L29.6904 38.6723L30.2469 40.4642L28.795 39.3569L27.345 40.4642L27.8986 38.6723L26.4485 37.5651H28.2404L28.795 35.7722Z" fill="#FFD833"/>
<path d="M36.1685 8.96057L36.7221 10.7524H38.5139L37.0639 11.8606L37.6204 13.6525L36.1685 12.5443L34.7184 13.6525L35.272 11.8606L33.822 10.7524H35.6148L36.1685 8.96057Z" fill="#FFD833"/>
<path d="M42.1291 28.2551L42.6827 30.048H44.4746L43.0246 31.1552L43.581 32.947L42.1291 31.8398L40.6791 32.947L41.2327 31.1552L39.7827 30.048H41.5755L42.1291 28.2551Z" fill="#FFD833"/>
<path d="M43.5421 21.0249L44.0957 22.8168H45.8876L44.4375 23.9249L44.994 25.7168L43.5421 24.6096L42.0921 25.7168L42.6466 23.924L41.1956 22.8168H42.9875L43.5421 21.0249Z" fill="#FFD833"/>
<path d="M14.0489 21.0249L14.6025 22.8168H16.3943L14.9443 23.9249L15.5008 25.7168L14.0489 24.6096L12.5988 25.7168L13.1524 23.924L11.7024 22.8168H13.4952L14.0489 21.0249Z" fill="#FFD833"/>
<path d="M15.27 28.2551L15.8236 30.048H17.6154L16.1654 31.1552L16.7219 32.947L15.27 31.8398L13.8199 32.947L14.3735 31.1552L12.9235 30.048H14.7163L15.27 28.2551Z" fill="#FFD833"/>
<path d="M42.1291 13.604L42.6827 15.3969H44.4746L43.0246 16.5041L43.581 18.296L42.1291 17.1887L40.6791 18.296L41.2327 16.5041L39.7827 15.3969H41.5755L42.1291 13.604Z" fill="#FFD833"/>
<path d="M15.8805 13.604L16.4341 15.3969H18.2259L16.7759 16.5041L17.3324 18.296L15.8805 17.1887L14.4304 18.296L14.9841 16.5041L13.534 15.3969H15.3269L15.8805 13.604Z" fill="#FFD833"/>
<path d="M37.5094 34.4311L38.063 36.223H39.8549L38.4048 37.3311L38.9613 39.123L37.5094 38.0158L36.0584 39.123L36.613 37.3311L35.1629 36.223H36.9558L37.5094 34.4311Z" fill="#FFD833"/>
<path d="M21.4223 8.96057L21.9759 10.7524H23.7678L22.3178 11.8606L22.8743 13.6525L21.4223 12.5443L19.9723 13.6525L20.5259 11.8606L19.0759 10.7524H20.8678L21.4223 8.96057Z" fill="#FFD833"/>
<path d="M20.0806 34.4311L20.6342 36.2239H22.4271L20.977 37.3311L21.5335 39.123L20.0806 38.0167L18.6316 39.123L19.1852 37.3311L17.7351 36.2239H19.527L20.0806 34.4311Z" fill="#FFD833"/>
<path fill-rule="evenodd" clip-rule="evenodd" d="M32.4358 22.3249H34.725V30.6968H22.516V22.3249H24.8052V19.8014C24.8052 17.813 26.7205 16.2196 28.9944 16.4103C30.9784 16.5805 32.4358 18.1671 32.4358 19.9444V22.3249ZM26.3313 19.8014V22.3249H30.9097V19.8014C30.9097 18.6711 29.8872 17.7586 28.6205 17.7586C27.3538 17.7586 26.3313 18.6711 26.3313 19.8014ZM31.0866 24.9017C31.0823 24.7592 31.0219 24.6235 30.9178 24.525C30.8135 24.4264 30.6741 24.3734 30.5303 24.3781C30.3867 24.3828 30.2513 24.4447 30.1537 24.5493L27.7799 27.0934L26.9094 25.8629L26.9057 25.858C26.8208 25.7466 26.6958 25.6724 26.5568 25.6516C26.4179 25.6308 26.2767 25.6653 26.163 25.747C26.0494 25.8286 25.9721 25.9509 25.9467 26.0879C25.9212 26.2248 25.9495 26.3667 26.0261 26.4836L26.0295 26.4888L27.2823 28.2595C27.3284 28.3247 27.3885 28.379 27.4583 28.4182C27.5282 28.4574 27.6059 28.4805 27.6859 28.4859C27.7658 28.4913 27.8459 28.4787 27.9203 28.4492C27.9946 28.4197 28.0615 28.3739 28.116 28.3157L30.9413 25.2875C31.0388 25.183 31.0909 25.0443 31.0866 24.9017Z" fill="white"/>
</svg>
