<svg xmlns="http://www.w3.org/2000/svg" xmlns:xlink="http://www.w3.org/1999/xlink" width="500" zoomAndPan="magnify" viewBox="0 0 375 374.999991" height="500" preserveAspectRatio="xMidYMid meet" version="1.0"><defs><g/><clipPath id="0cdfa0a48b"><path d="M 308 151.101562 L 338.902344 151.101562 L 338.902344 190.910156 L 308 190.910156 Z M 308 151.101562 " clip-rule="nonzero"/></clipPath><clipPath id="50307709bc"><path d="M 343.269531 145.097656 L 356.8125 145.097656 L 356.8125 161.289062 L 343.269531 161.289062 Z M 343.269531 145.097656 " clip-rule="nonzero"/></clipPath><clipPath id="0b6957efb8"><path d="M 310 130.910156 L 321 130.910156 L 321 143 L 310 143 Z M 310 130.910156 " clip-rule="nonzero"/></clipPath><clipPath id="b7242f00dd"><rect x="0" width="305" y="0" height="62"/></clipPath></defs><g clip-path="url(#0cdfa0a48b)"><path fill="#5500ff" d="M 328.222656 178.582031 C 326.636719 180.640625 324.679688 182.730469 322.398438 184.820312 C 320.105469 186.914062 317.46875 189.023438 314.523438 191.113281 C 318.296875 188.957031 321.695312 186.726562 324.664062 184.480469 C 327.609375 182.25 330.15625 179.988281 332.246094 177.746094 C 334.335938 175.503906 335.980469 173.257812 337.105469 171.070312 C 338.246094 168.859375 338.859375 166.679688 338.851562 164.59375 C 338.84375 162.460938 338.183594 160.558594 336.933594 158.90625 C 335.648438 157.199219 333.726562 155.75 331.238281 154.585938 C 328.648438 153.375 325.433594 152.464844 321.660156 151.90625 C 317.726562 151.324219 313.171875 151.117188 308.09375 151.34375 C 312.222656 151.742188 315.886719 152.417969 319.042969 153.339844 C 322.082031 154.230469 324.660156 155.351562 326.738281 156.675781 C 328.75 157.960938 330.304688 159.445312 331.363281 161.109375 C 332.394531 162.726562 332.96875 164.527344 333.039062 166.496094 C 333.109375 168.425781 332.699219 170.421875 331.867188 172.453125 C 331.050781 174.457031 329.816406 176.511719 328.222656 178.582031 " fill-opacity="1" fill-rule="nonzero"/></g><path fill="#8b50ff" d="M 340.628906 150.261719 L 351.871094 140.304688 C 351.328125 139.796875 350.738281 139.308594 350.105469 138.835938 C 349.464844 138.359375 348.78125 137.898438 348.054688 137.460938 C 347.316406 137.015625 346.535156 136.589844 345.710938 136.1875 C 344.875 135.777344 343.992188 135.386719 343.066406 135.019531 L 334.371094 146.441406 C 335 146.71875 335.605469 147.007812 336.183594 147.3125 C 336.757812 147.609375 337.304688 147.917969 337.828125 148.238281 C 338.347656 148.558594 338.839844 148.882812 339.308594 149.222656 C 339.773438 149.558594 340.210938 149.90625 340.628906 150.261719 " fill-opacity="1" fill-rule="nonzero"/><path fill="#c5a7ff" d="M 328.820312 144.464844 C 329.402344 144.632812 329.96875 144.804688 330.523438 144.984375 L 337.378906 133.191406 C 336.597656 132.992188 335.796875 132.800781 334.972656 132.625 C 334.140625 132.449219 333.285156 132.285156 332.410156 132.132812 C 331.523438 131.980469 330.617188 131.839844 329.683594 131.714844 C 328.746094 131.589844 327.785156 131.476562 326.800781 131.378906 L 324.988281 137.160156 L 323.101562 143.167969 C 323.785156 143.289062 324.457031 143.417969 325.109375 143.558594 C 325.757812 143.695312 326.394531 143.839844 327.015625 143.992188 C 327.632812 144.140625 328.234375 144.300781 328.820312 144.464844 " fill-opacity="1" fill-rule="nonzero"/><g clip-path="url(#50307709bc)"><path fill="#6e25ff" d="M 356.800781 150.566406 C 356.777344 149.925781 356.710938 149.296875 356.605469 148.683594 C 356.5 148.0625 356.351562 147.457031 356.164062 146.863281 C 355.976562 146.269531 355.746094 145.683594 355.476562 145.117188 L 343.449219 153.375 C 343.835938 153.945312 344.175781 154.539062 344.460938 155.144531 C 344.746094 155.75 344.980469 156.371094 345.164062 157.007812 C 345.34375 157.640625 345.476562 158.292969 345.554688 158.960938 C 345.632812 159.625 345.664062 160.304688 345.640625 161.003906 L 345.636719 161.070312 L 345.636719 161.101562 L 345.632812 161.136719 L 355.757812 157.015625 C 355.890625 156.640625 356.007812 156.265625 356.113281 155.894531 C 356.21875 155.519531 356.316406 155.144531 356.398438 154.769531 C 356.480469 154.394531 356.550781 154.019531 356.609375 153.644531 C 356.667969 153.269531 356.714844 152.894531 356.75 152.519531 C 356.808594 151.855469 356.824219 151.203125 356.800781 150.566406 " fill-opacity="1" fill-rule="nonzero"/></g><path fill="#eae0ff" d="M 273.234375 145.539062 C 274.539062 145.273438 275.828125 145.023438 277.105469 144.789062 C 278.371094 144.554688 279.625 144.335938 280.863281 144.132812 C 282.09375 143.933594 283.308594 143.742188 284.511719 143.570312 C 285.703125 143.398438 286.882812 143.238281 288.046875 143.09375 L 281.527344 135.324219 C 275.578125 136.714844 269.695312 138.402344 263.960938 140.347656 C 258.0625 142.347656 252.363281 144.609375 246.960938 147.089844 C 241.445312 149.621094 236.28125 152.359375 231.566406 155.25 C 226.789062 158.179688 222.515625 161.242188 218.832031 164.375 C 222.917969 162.269531 227.222656 160.257812 231.710938 158.359375 C 236.117188 156.496094 240.679688 154.753906 245.355469 153.144531 C 249.933594 151.570312 254.605469 150.132812 259.328125 148.84375 C 263.9375 147.589844 268.585938 146.484375 273.234375 145.539062 " fill-opacity="1" fill-rule="nonzero"/><g clip-path="url(#0b6957efb8)"><path fill="#c5a7ff" d="M 315.222656 142.179688 C 315.878906 142.230469 316.523438 142.289062 317.160156 142.351562 C 317.792969 142.414062 318.414062 142.484375 319.027344 142.558594 L 320.15625 135.875 L 320.976562 130.984375 C 320.152344 130.953125 319.316406 130.933594 318.464844 130.921875 C 317.609375 130.910156 316.738281 130.90625 315.855469 130.914062 C 314.96875 130.921875 314.066406 130.9375 313.152344 130.964844 C 312.230469 130.996094 311.296875 131.03125 310.351562 131.082031 L 311.132812 141.941406 C 311.835938 141.96875 312.527344 142.003906 313.214844 142.042969 C 313.890625 142.082031 314.5625 142.128906 315.222656 142.179688 " fill-opacity="1" fill-rule="nonzero"/></g><path fill="#6e25ff" d="M 342.996094 169.695312 C 342.304688 170.949219 341.484375 172.214844 340.550781 173.480469 C 339.617188 174.746094 338.5625 176.019531 337.398438 177.289062 C 336.234375 178.5625 334.957031 179.835938 333.570312 181.113281 C 335.636719 179.722656 337.582031 178.316406 339.398438 176.902344 C 341.203125 175.492188 342.882812 174.066406 344.433594 172.640625 C 345.976562 171.214844 347.394531 169.777344 348.671875 168.34375 C 349.953125 166.90625 351.097656 165.460938 352.097656 164.023438 L 344.683594 165.933594 C 344.257812 167.175781 343.6875 168.433594 342.996094 169.695312 " fill-opacity="1" fill-rule="nonzero"/><path fill="#eae0ff" d="M 291.179688 133.335938 C 291.070312 133.355469 290.960938 133.375 290.851562 133.394531 C 290.742188 133.414062 290.632812 133.4375 290.523438 133.457031 C 290.414062 133.476562 290.304688 133.496094 290.195312 133.519531 L 294.527344 141.035156 L 295.28125 142.339844 C 296.246094 142.261719 297.203125 142.191406 298.144531 142.132812 C 299.082031 142.074219 300.007812 142.027344 300.917969 141.988281 C 301.824219 141.949219 302.71875 141.917969 303.597656 141.894531 C 304.472656 141.875 305.335938 141.863281 306.1875 141.859375 L 303.78125 131.582031 C 302.8125 131.679688 301.828125 131.785156 300.839844 131.902344 C 299.839844 132.019531 298.832031 132.148438 297.8125 132.289062 C 296.785156 132.429688 295.75 132.582031 294.703125 132.746094 C 293.648438 132.910156 292.585938 133.089844 291.511719 133.277344 L 291.503906 133.277344 C 291.398438 133.296875 291.289062 133.316406 291.179688 133.335938 " fill-opacity="1" fill-rule="nonzero"/><g transform="matrix(1, 0, 0, 1, 19, 156)"><g clip-path="url(#b7242f00dd)"><g fill="#ffffff" fill-opacity="1"><g transform="translate(4.396954, 46.542623)"><g><path d="M -3.09375 0 L -1.390625 -7.359375 L 0.859375 -7.359375 L 5.515625 -27.53125 L 3.28125 -27.53125 L 4.984375 -34.875 L 31.78125 -34.875 L 29.09375 -23.265625 L 21.15625 -23.265625 L 22.140625 -27.53125 L 18.0625 -27.53125 L 16.359375 -20.078125 L 23.140625 -20.078125 L 21.921875 -14.96875 L 15.15625 -14.96875 L 13.40625 -7.359375 L 19.28125 -7.359375 L 17.578125 0 Z M -3.09375 0 "/></g></g></g><g fill="#ffffff" fill-opacity="1"><g transform="translate(34.832749, 46.542623)"><g><path d="M 31.515625 -7.359375 L 33.3125 -7.359375 L 31.609375 0 L 14.03125 0 L 15.734375 -7.359375 L 18.421875 -7.359375 L 18.5625 -10.9375 L 12.46875 -10.9375 L 10.890625 -7.359375 L 13.578125 -7.359375 L 11.875 0 L -3.453125 0 L -1.75 -7.359375 L 0.046875 -7.359375 L 13.984375 -34.875 L 30.3125 -34.875 Z M 14.53125 -15.6875 L 18.65625 -15.6875 L 18.875 -24.609375 L 18.421875 -24.609375 Z M 14.53125 -15.6875 "/></g></g></g><g fill="#ffffff" fill-opacity="1"><g transform="translate(73.06788, 46.542623)"><g><path d="M 10.671875 0.625 C 7.804688 0.625 5.15625 0.378906 2.71875 -0.109375 C 0.28125 -0.609375 -1.566406 -1.171875 -2.828125 -1.796875 L -0.765625 -10.671875 L 9.109375 -10.671875 C 8.890625 -9.742188 8.945312 -9.070312 9.28125 -8.65625 C 9.613281 -8.238281 10.332031 -8.03125 11.4375 -8.03125 C 12.363281 -8.03125 13.054688 -8.171875 13.515625 -8.453125 C 13.984375 -8.734375 14.273438 -9.160156 14.390625 -9.734375 C 14.515625 -10.203125 14.414062 -10.609375 14.09375 -10.953125 C 13.78125 -11.296875 13.191406 -11.648438 12.328125 -12.015625 L 8.78125 -13.359375 C 5.769531 -14.609375 3.734375 -16.085938 2.671875 -17.796875 C 1.609375 -19.503906 1.40625 -21.804688 2.0625 -24.703125 C 2.894531 -28.222656 4.675781 -30.898438 7.40625 -32.734375 C 10.144531 -34.578125 14.222656 -35.5 19.640625 -35.5 C 22.234375 -35.5 24.613281 -35.238281 26.78125 -34.71875 C 28.945312 -34.195312 30.628906 -33.503906 31.828125 -32.640625 L 29.984375 -24.609375 L 21.03125 -24.609375 C 21.351562 -26.109375 20.585938 -26.859375 18.734375 -26.859375 C 17.835938 -26.859375 17.179688 -26.742188 16.765625 -26.515625 C 16.347656 -26.285156 16.078125 -25.890625 15.953125 -25.328125 C 15.835938 -24.816406 15.957031 -24.410156 16.3125 -24.109375 C 16.675781 -23.816406 17.320312 -23.503906 18.25 -23.171875 L 21.828125 -21.828125 C 24.734375 -20.753906 26.710938 -19.359375 27.765625 -17.640625 C 28.828125 -15.921875 29.03125 -13.671875 28.375 -10.890625 C 27.507812 -7.097656 25.570312 -4.226562 22.5625 -2.28125 C 19.5625 -0.34375 15.597656 0.625 10.671875 0.625 Z M 10.671875 0.625 "/></g></g></g><g fill="#ffffff" fill-opacity="1"><g transform="translate(105.386274, 46.542623)"><g><path d="M 35.859375 -24.03125 L 28.15625 -24.03125 L 28.953125 -27.53125 L 26.09375 -27.53125 L 21.421875 -7.359375 L 24.5625 -7.359375 L 22.859375 0 L 4.03125 0 L 5.734375 -7.359375 L 8.875 -7.359375 L 13.53125 -27.53125 L 10.671875 -27.53125 L 9.859375 -24.03125 L 2.15625 -24.03125 L 4.65625 -34.875 L 38.375 -34.875 Z M 35.859375 -24.03125 "/></g></g></g><g fill="#ffffff" fill-opacity="1"><g transform="translate(142.455988, 46.542623)"><g><path d="M -1.390625 -7.359375 L 0.859375 -7.359375 L 5.515625 -27.53125 L 3.28125 -27.53125 L 4.984375 -34.875 L 25.546875 -34.875 C 29.410156 -34.875 32.171875 -34.082031 33.828125 -32.5 C 35.484375 -30.914062 35.910156 -28.347656 35.109375 -24.796875 C 34.628906 -22.785156 33.820312 -21.046875 32.6875 -19.578125 C 31.550781 -18.117188 30.160156 -17.109375 28.515625 -16.546875 L 28.46875 -16.09375 C 31.25 -15.644531 32.28125 -13.878906 31.5625 -10.796875 L 30.75 -7.359375 L 32.859375 -7.359375 L 31.15625 0 L 16.953125 0 L 19.375 -10.53125 C 19.632812 -11.695312 19.664062 -12.578125 19.46875 -13.171875 C 19.28125 -13.773438 18.84375 -14.179688 18.15625 -14.390625 C 17.46875 -14.597656 16.453125 -14.703125 15.109375 -14.703125 L 13.40625 -7.359375 L 16.359375 -7.359375 L 14.65625 0 L -3.09375 0 Z M 18.78125 -20.171875 C 19.644531 -20.171875 20.347656 -20.398438 20.890625 -20.859375 C 21.429688 -21.328125 21.820312 -22.054688 22.0625 -23.046875 L 22.421875 -24.65625 C 22.660156 -25.644531 22.613281 -26.367188 22.28125 -26.828125 C 21.945312 -27.296875 21.347656 -27.53125 20.484375 -27.53125 L 18.0625 -27.53125 L 16.359375 -20.171875 Z M 18.78125 -20.171875 "/></g></g></g><g fill="#ffffff" fill-opacity="1"><g transform="translate(180.422175, 46.542623)"><g><path d="M 31.515625 -7.359375 L 33.3125 -7.359375 L 31.609375 0 L 14.03125 0 L 15.734375 -7.359375 L 18.421875 -7.359375 L 18.5625 -10.9375 L 12.46875 -10.9375 L 10.890625 -7.359375 L 13.578125 -7.359375 L 11.875 0 L -3.453125 0 L -1.75 -7.359375 L 0.046875 -7.359375 L 13.984375 -34.875 L 30.3125 -34.875 Z M 14.53125 -15.6875 L 18.65625 -15.6875 L 18.875 -24.609375 L 18.421875 -24.609375 Z M 14.53125 -15.6875 "/></g></g></g><g fill="#ffffff" fill-opacity="1"><g transform="translate(218.657306, 46.542623)"><g><path d="M 30.796875 -34.875 L 45.5 -34.875 L 43.796875 -27.53125 L 41.5625 -27.53125 L 35.1875 0 L 22.59375 0 L 14.125 -20.21875 L 11.171875 -7.359375 L 13.3125 -7.359375 L 11.609375 0 L -3.09375 0 L -1.390625 -7.359375 L 0.859375 -7.359375 L 5.515625 -27.53125 L 3.28125 -27.53125 L 4.984375 -34.875 L 21.15625 -34.875 L 28.78125 -16.90625 L 31.25 -27.53125 L 29.09375 -27.53125 Z M 30.796875 -34.875 "/></g></g></g><g fill="#ffffff" fill-opacity="1"><g transform="translate(262.988468, 46.542623)"><g><path d="M 32.1875 -7.359375 L 34.4375 -7.359375 L 32.734375 0 L 20.484375 0 L 16.984375 -13.890625 L 14.53125 -12.1875 L 13.40625 -7.359375 L 15.5625 -7.359375 L 13.859375 0 L -3.09375 0 L -1.390625 -7.359375 L 0.859375 -7.359375 L 5.515625 -27.53125 L 3.28125 -27.53125 L 4.984375 -34.875 L 21.921875 -34.875 L 20.21875 -27.53125 L 18.0625 -27.53125 L 16.671875 -21.609375 L 25.015625 -27.53125 L 22.1875 -27.53125 L 23.890625 -34.875 L 40.578125 -34.875 L 38.875 -27.53125 L 36.625 -27.53125 L 27.703125 -21.34375 Z M 32.1875 -7.359375 "/></g></g></g></g></g></svg>