<svg xmlns="http://www.w3.org/2000/svg" xmlns:xlink="http://www.w3.org/1999/xlink" width="300" zoomAndPan="magnify" viewBox="0 0 224.87999 225" height="300" preserveAspectRatio="xMidYMid meet" version="1.0"><defs><g/><clipPath id="652918e2a0"><path d="M 16.777344 83 L 84 83 L 84 162 L 16.777344 162 Z M 16.777344 83 " clip-rule="nonzero"/></clipPath><clipPath id="7c374ef656"><path d="M 39 63.199219 L 105.980469 63.199219 L 105.980469 146 L 39 146 Z M 39 63.199219 " clip-rule="nonzero"/></clipPath><clipPath id="7f7adfa2df"><path d="M 0.152344 7 L 14 7 L 14 28 L 0.152344 28 Z M 0.152344 7 " clip-rule="nonzero"/></clipPath><clipPath id="2447bcccf2"><rect x="0" width="44" y="0" height="36"/></clipPath><clipPath id="9bf6a02590"><rect x="0" width="82" y="0" height="57"/></clipPath></defs><g clip-path="url(#652918e2a0)"><path fill="#ffffff" d="M 83.410156 83.082031 L 63.296875 106.839844 L 61.328125 102.820312 L 51.578125 102.820312 L 57.132812 114.132812 L 16.789062 161.792969 L 48.988281 116.332031 L 39.519531 98.011719 L 65.273438 97.824219 Z M 83.410156 83.082031 " fill-opacity="1" fill-rule="nonzero"/></g><g clip-path="url(#7c374ef656)"><path fill="#b4b4b4" d="M 74.339844 109.113281 L 83.410156 127.433594 L 76.191406 145.9375 L 63.238281 137.242188 L 57.6875 126.878906 L 39.519531 141.914062 L 59.292969 118.550781 L 66.199219 132.613281 L 74.03125 137.613281 L 75.457031 129.375 L 65.464844 111.261719 L 106.140625 63.199219 Z M 74.339844 109.113281 " fill-opacity="1" fill-rule="nonzero"/></g><g transform="matrix(1, 0, 0, 1, 91, 86)"><g clip-path="url(#2447bcccf2)"><g clip-path="url(#7f7adfa2df)"><g fill="#ffffff" fill-opacity="1"><g transform="translate(2.209882, 27.596177)"><g><path d="M -1.40625 0 L 3.25 -20.234375 L 11.359375 -20.234375 L 10.46875 -16.296875 L 6.4375 -16.296875 L 5.6875 -13.0625 L 9.5 -13.0625 L 8.609375 -9.1875 L 4.78125 -9.1875 L 2.671875 0 Z M -1.40625 0 "/></g></g></g></g><g fill="#ffffff" fill-opacity="1"><g transform="translate(11.603991, 27.596177)"><g><path d="M 1.96875 0.1875 C 0.625 0.1875 -0.1875 -0.253906 -0.46875 -1.140625 C -0.757812 -2.023438 -0.71875 -3.289062 -0.34375 -4.9375 C -0.03125 -6.289062 0.378906 -7.328125 0.890625 -8.046875 C 1.410156 -8.773438 2.023438 -9.304688 2.734375 -9.640625 C 3.441406 -9.984375 4.488281 -10.359375 5.875 -10.765625 L 7.09375 -11.140625 L 7.09375 -11.1875 L 7.5 -12.90625 C 7.601562 -13.363281 7.59375 -13.710938 7.46875 -13.953125 C 7.34375 -14.191406 7.15625 -14.3125 6.90625 -14.3125 C 6.6875 -14.3125 6.46875 -14.207031 6.25 -14 C 6.039062 -13.800781 5.898438 -13.53125 5.828125 -13.1875 L 5.59375 -12.15625 L 1.578125 -12.15625 L 1.703125 -12.71875 C 2.097656 -14.414062 2.773438 -15.625 3.734375 -16.34375 C 4.691406 -17.0625 6.0625 -17.421875 7.84375 -17.421875 C 9.269531 -17.421875 10.34375 -17.046875 11.0625 -16.296875 C 11.789062 -15.554688 12 -14.503906 11.6875 -13.140625 L 8.671875 0 L 4.578125 0 L 5.046875 -2.046875 C 4.671875 -1.335938 4.210938 -0.785156 3.671875 -0.390625 C 3.140625 -0.00390625 2.570312 0.1875 1.96875 0.1875 Z M 4.3125 -3.015625 C 4.625 -3.015625 4.878906 -3.144531 5.078125 -3.40625 C 5.273438 -3.664062 5.414062 -3.984375 5.5 -4.359375 L 6.59375 -9.15625 C 5.9375 -8.925781 5.421875 -8.628906 5.046875 -8.265625 C 4.671875 -7.898438 4.410156 -7.398438 4.265625 -6.765625 L 3.75 -4.546875 C 3.519531 -3.523438 3.707031 -3.015625 4.3125 -3.015625 Z M 4.3125 -3.015625 "/></g></g></g><g fill="#ffffff" fill-opacity="1"><g transform="translate(22.975804, 27.596177)"><g><path d="M 3.5625 0.1875 C 0.15625 0.1875 -1.15625 -1.535156 -0.375 -4.984375 L -0.015625 -6.359375 L 4.109375 -6.359375 L 3.65625 -4.328125 C 3.5625 -3.921875 3.566406 -3.609375 3.671875 -3.390625 C 3.785156 -3.179688 4.023438 -3.078125 4.390625 -3.078125 C 4.941406 -3.078125 5.316406 -3.523438 5.515625 -4.421875 C 5.671875 -5.085938 5.660156 -5.609375 5.484375 -5.984375 C 5.316406 -6.359375 5 -6.757812 4.53125 -7.1875 L 2.734375 -8.875 C 2.109375 -9.457031 1.703125 -10.054688 1.515625 -10.671875 C 1.328125 -11.296875 1.363281 -12.171875 1.625 -13.296875 C 1.832031 -14.179688 2.238281 -14.929688 2.84375 -15.546875 C 3.445312 -16.171875 4.164062 -16.640625 5 -16.953125 C 5.84375 -17.265625 6.738281 -17.421875 7.6875 -17.421875 C 11.03125 -17.421875 12.316406 -15.757812 11.546875 -12.4375 L 11.46875 -12.109375 L 7.21875 -12.109375 L 7.375 -12.765625 C 7.46875 -13.171875 7.476562 -13.519531 7.40625 -13.8125 C 7.34375 -14.101562 7.15625 -14.25 6.84375 -14.25 C 6.550781 -14.25 6.3125 -14.164062 6.125 -14 C 5.9375 -13.832031 5.8125 -13.609375 5.75 -13.328125 C 5.613281 -12.703125 5.75 -12.21875 6.15625 -11.875 L 8.265625 -10 C 9.023438 -9.332031 9.550781 -8.597656 9.84375 -7.796875 C 10.144531 -7.003906 10.160156 -6.003906 9.890625 -4.796875 C 9.515625 -3.203125 8.773438 -1.972656 7.671875 -1.109375 C 6.566406 -0.242188 5.195312 0.1875 3.5625 0.1875 Z M 3.5625 0.1875 "/></g></g></g><g fill="#ffffff" fill-opacity="1"><g transform="translate(34.159262, 27.596177)"><g><path d="M 2.0625 0.1875 C 0.976562 0.1875 0.285156 -0.0351562 -0.015625 -0.484375 C -0.328125 -0.941406 -0.367188 -1.675781 -0.140625 -2.6875 L 2.359375 -13.4375 L 1.203125 -13.4375 L 1.921875 -16.578125 L 3.0625 -16.578125 L 3.921875 -20.234375 L 7.921875 -20.234375 L 7.078125 -16.578125 L 8.25 -16.578125 L 7.546875 -13.4375 L 6.359375 -13.4375 L 4.125 -3.765625 C 4.050781 -3.460938 4.019531 -3.238281 4.03125 -3.09375 C 4.050781 -2.957031 4.160156 -2.890625 4.359375 -2.890625 C 4.515625 -2.890625 4.664062 -2.894531 4.8125 -2.90625 C 4.96875 -2.925781 5.070312 -2.9375 5.125 -2.9375 L 4.453125 -0.125 C 4.203125 -0.0625 3.84375 0.00390625 3.375 0.078125 C 2.914062 0.148438 2.476562 0.1875 2.0625 0.1875 Z M 2.0625 0.1875 "/></g></g></g></g></g><g transform="matrix(1, 0, 0, 1, 99, 110)"><g clip-path="url(#9bf6a02590)"><g fill="#b4b4b4" fill-opacity="1"><g transform="translate(3.483817, 43.737211)"><g><path d="M 5.28125 -32.953125 L 15.40625 -32.953125 C 17.019531 -32.953125 18.1875 -32.585938 18.90625 -31.859375 C 19.625 -31.128906 19.984375 -30.101562 19.984375 -28.78125 C 19.984375 -27.46875 19.75 -25.789062 19.28125 -23.75 C 18.851562 -21.875 18.273438 -20.410156 17.546875 -19.359375 C 16.816406 -18.316406 15.800781 -17.59375 14.5 -17.1875 C 15.4375 -16.976562 16.039062 -16.476562 16.3125 -15.6875 C 16.582031 -14.894531 16.5625 -13.820312 16.25 -12.46875 L 13.296875 0 L 6.859375 0 L 9.8125 -12.890625 C 10.039062 -13.804688 10 -14.390625 9.6875 -14.640625 C 9.382812 -14.898438 8.757812 -15.03125 7.8125 -15.03125 L 4.359375 0 L -2.3125 0 Z M 10.765625 -20.75 C 11.691406 -20.75 12.382812 -21.75 12.84375 -23.75 C 13.050781 -24.613281 13.160156 -25.265625 13.171875 -25.703125 C 13.179688 -26.140625 13.101562 -26.441406 12.9375 -26.609375 C 12.769531 -26.773438 12.492188 -26.859375 12.109375 -26.859375 L 10.578125 -26.859375 L 9.203125 -20.75 Z M 10.765625 -20.75 "/></g></g></g><g fill="#b4b4b4" fill-opacity="1"><g transform="translate(21.780358, 43.737211)"><g><path d="M 3.171875 0.3125 C 1.003906 0.3125 -0.3125 -0.410156 -0.78125 -1.859375 C -1.257812 -3.304688 -1.191406 -5.375 -0.578125 -8.0625 C -0.0664062 -10.257812 0.609375 -11.945312 1.453125 -13.125 C 2.296875 -14.300781 3.289062 -15.160156 4.4375 -15.703125 C 5.59375 -16.253906 7.296875 -16.863281 9.546875 -17.53125 L 11.546875 -18.140625 L 11.546875 -18.21875 L 12.1875 -21.015625 C 12.363281 -21.765625 12.347656 -22.335938 12.140625 -22.734375 C 11.941406 -23.128906 11.640625 -23.328125 11.234375 -23.328125 C 10.867188 -23.328125 10.515625 -23.160156 10.171875 -22.828125 C 9.828125 -22.492188 9.59375 -22.046875 9.46875 -21.484375 L 9.078125 -19.796875 L 2.5625 -19.796875 L 2.75 -20.71875 C 3.394531 -23.476562 4.492188 -25.445312 6.046875 -26.625 C 7.609375 -27.800781 9.847656 -28.390625 12.765625 -28.390625 C 15.085938 -28.390625 16.835938 -27.78125 18.015625 -26.5625 C 19.191406 -25.34375 19.523438 -23.625 19.015625 -21.40625 L 14.109375 0 L 7.4375 0 L 8.203125 -3.34375 C 7.585938 -2.1875 6.84375 -1.285156 5.96875 -0.640625 C 5.101562 -0.00390625 4.171875 0.3125 3.171875 0.3125 Z M 7.015625 -4.90625 C 7.523438 -4.90625 7.9375 -5.113281 8.25 -5.53125 C 8.570312 -5.957031 8.800781 -6.476562 8.9375 -7.09375 L 10.734375 -14.921875 C 9.660156 -14.535156 8.816406 -14.046875 8.203125 -13.453125 C 7.585938 -12.867188 7.164062 -12.054688 6.9375 -11.015625 L 6.09375 -7.40625 C 5.707031 -5.738281 6.015625 -4.90625 7.015625 -4.90625 Z M 7.015625 -4.90625 "/></g></g></g><g fill="#b4b4b4" fill-opacity="1"><g transform="translate(40.307048, 43.737211)"><g><path d="M 4.59375 -28.078125 L 11.3125 -28.078125 L 10.46875 -24.515625 C 11 -25.660156 11.691406 -26.59375 12.546875 -27.3125 C 13.410156 -28.03125 14.414062 -28.390625 15.5625 -28.390625 C 17.457031 -28.390625 18.722656 -27.804688 19.359375 -26.640625 C 20.003906 -25.472656 20.082031 -23.816406 19.59375 -21.671875 L 14.609375 0 L 8.015625 0 L 12.84375 -20.984375 C 12.96875 -21.597656 12.957031 -22.117188 12.8125 -22.546875 C 12.675781 -22.984375 12.351562 -23.203125 11.84375 -23.203125 C 11.15625 -23.203125 10.628906 -22.890625 10.265625 -22.265625 C 9.910156 -21.640625 9.609375 -20.800781 9.359375 -19.75 L 4.828125 0 L -1.890625 0 Z M 4.59375 -28.078125 "/></g></g></g><g fill="#b4b4b4" fill-opacity="1"><g transform="translate(59.447455, 43.737211)"><g><path d="M -2.46875 0 L 5.203125 -33.140625 L 11.84375 -33.140625 L 8.4375 -18.40625 L 13.875 -28.078125 L 20.828125 -28.078125 L 13.796875 -15.875 L 15.484375 0 L 8.359375 0 L 7.25 -13.234375 L 4.171875 0 Z M -2.46875 0 "/></g></g></g></g></g></svg>